<svg xmlns="http://www.w3.org/2000/svg" xmlns:xlink="http://www.w3.org/1999/xlink" width="37" height="37" viewBox="0 0 37 37"><defs><clipPath id="a"><rect width="37" height="25.243" fill="none"/></clipPath></defs><g transform="translate(-378 -261)"><g transform="translate(396.5 279.5)"><g transform="translate(-18.5 -12.621)" clip-path="url(#a)"><path d="M9.907,9.2A1.921,1.921,0,1,0,7.986,7.178,2.022,2.022,0,0,0,9.907,9.2M33.765,0H3.235A3.235,3.235,0,0,0,0,3.235v18.8a3.235,3.235,0,0,0,3.235,3.235h30.53A3.235,3.235,0,0,0,37,22.038V3.235A3.235,3.235,0,0,0,33.765,0M9.907,3.639A3.538,3.538,0,1,1,6.369,7.178,3.639,3.639,0,0,1,9.907,3.639M8.492,19.915H6.066a.809.809,0,0,1,0-1.617H8.492a.809.809,0,1,1,0,1.617m-.91-4.448-1.921-.91a.809.809,0,0,1-.3-1.011L6.47,11.322a.809.809,0,0,1,1.415.708l-.708,1.516.91.4a6.066,6.066,0,0,0,1.921.3,6.268,6.268,0,0,0,1.921-.3l.91-.4-.708-1.516a.837.837,0,1,1,1.516-.708l1.112,2.224a.809.809,0,0,1-.3,1.011l-1.921.809a7.885,7.885,0,0,1-2.426.4,7.683,7.683,0,0,1-2.426-.4m16.175,4.448H12.03a.809.809,0,1,1,0-1.617H23.757a.809.809,0,0,1,0,1.617m-6.874-7.178a.809.809,0,0,1,.809-.809H28.913a.809.809,0,0,1,0,1.617H17.691a.809.809,0,0,1-.809-.809m14.355,7.178H27.3a.809.809,0,1,1,0-1.617h3.842a.809.809,0,1,1,0,1.617m0-11.423H17.691a.809.809,0,0,1,0-1.617H31.238a.809.809,0,0,1,0,1.617" fill="#8dbbf6"/></g></g><rect width="37" height="37" transform="translate(378 261)" fill="none"/></g></svg>