<svg xmlns="http://www.w3.org/2000/svg" width="351.107" height="61.316" viewBox="0 0 351.107 61.316">
  <g id="argentinagob-blanco" transform="translate(-2.447 -4.342)">
    <g id="Group_1973" data-name="Group 1973">
      <path id="Path_10347" data-name="Path 10347" d="M78.615,49.6l-2.731-8.368H64.531L61.8,49.6H56.655l9.782-29.073h7.581L83.8,49.6ZM65.886,37.028h8.623l-4.322-13.2Z" fill="#fff"/>
      <path id="Path_10348" data-name="Path 10348" d="M85.94,28.169h4.242l.393,2.789h.276a6.062,6.062,0,0,1,2.485-2.278,7.5,7.5,0,0,1,3.388-.767,10.85,10.85,0,0,1,1.71.139v4.675a11.725,11.725,0,0,0-2-.139,7.676,7.676,0,0,0-3.016.629,5.431,5.431,0,0,0-2.327,1.788V49.6H85.94Z" fill="#fff"/>
      <path id="Path_10349" data-name="Path 10349" d="M104.218,58.409a22.037,22.037,0,0,1-3.369-.677V53.646a23.723,23.723,0,0,0,6.5.983,9.611,9.611,0,0,0,3.575-.56,3.867,3.867,0,0,0,2.033-1.8,6.962,6.962,0,0,0,.658-3.261V47.322h-.255a6.968,6.968,0,0,1-2.446,1.808,7.833,7.833,0,0,1-3.25.649,7.981,7.981,0,0,1-4.164-1.111,7.747,7.747,0,0,1-2.986-3.457,13.648,13.648,0,0,1-1.12-5.883q0-5.656,2.946-8.565t8.761-2.926a28.406,28.406,0,0,1,3.987.294,21.548,21.548,0,0,1,3.674.826V48.089a13.1,13.1,0,0,1-1.209,6.041,7.378,7.378,0,0,1-3.643,3.417,15.194,15.194,0,0,1-6.188,1.092A29.473,29.473,0,0,1,104.218,58.409Zm7.563-13.29a4.644,4.644,0,0,0,1.836-1.3V32.135a13.447,13.447,0,0,0-2.946-.334A5.835,5.835,0,0,0,106.1,33.49q-1.524,1.69-1.523,5.382,0,3.674,1.276,5.176a4.526,4.526,0,0,0,3.653,1.5A6.1,6.1,0,0,0,111.781,45.119Z" fill="#fff"/>
      <path id="Path_10350" data-name="Path 10350" d="M140.49,40.424H127.23a7.517,7.517,0,0,0,.785,3.311,3.947,3.947,0,0,0,2.122,1.777,10.923,10.923,0,0,0,3.83.55,22.806,22.806,0,0,0,5.383-.745v3.908a25.186,25.186,0,0,1-6.089.767,14.834,14.834,0,0,1-6.295-1.159,7.622,7.622,0,0,1-3.683-3.6,14.28,14.28,0,0,1-1.219-6.356,14.681,14.681,0,0,1,1.12-6.069,7.994,7.994,0,0,1,3.241-3.722,9.95,9.95,0,0,1,5.126-1.247,8.061,8.061,0,0,1,6.659,2.82q2.28,2.818,2.279,8.376v1.393Zm-12.14-7.817q-1.08,1.413-1.139,4.733h8.466a8.515,8.515,0,0,0-1.09-4.733,3.561,3.561,0,0,0-3.074-1.414A3.737,3.737,0,0,0,128.35,32.607Z" fill="#fff"/>
      <path id="Path_10351" data-name="Path 10351" d="M143.533,28.169H147.8l.352,2.258h.276A8.237,8.237,0,0,1,151.3,28.5a9.412,9.412,0,0,1,3.545-.668,7.021,7.021,0,0,1,5.244,1.955q1.925,1.954,1.926,6.177V49.6h-5.147V36.261a4.25,4.25,0,0,0-.9-3.054,3.549,3.549,0,0,0-2.632-.914,6.418,6.418,0,0,0-2.554.54,5.261,5.261,0,0,0-2.1,1.622V49.6h-5.147V28.169Z" fill="#fff"/>
      <path id="Path_10352" data-name="Path 10352" d="M178.93,45.435V49.56a16.47,16.47,0,0,1-3.712.433q-7.621,0-7.622-7.681V32.274H163.9v-4.1H167.6l.9-7.643h4.242V28.17h5.991v4.105h-5.991v9.213a6.361,6.361,0,0,0,.4,2.494,2.548,2.548,0,0,0,1.228,1.326,4.983,4.983,0,0,0,2.181.4A13.423,13.423,0,0,0,178.93,45.435Z" fill="#fff"/>
      <path id="Path_10353" data-name="Path 10353" d="M181.415,23.778a2.608,2.608,0,0,1-.816-2.072,2.641,2.641,0,0,1,.816-2.083,4.48,4.48,0,0,1,4.89,0,2.646,2.646,0,0,1,.816,2.083,2.613,2.613,0,0,1-.816,2.072,4.527,4.527,0,0,1-4.89,0ZM181.268,49.6V28.169h5.166V49.6Z" fill="#fff"/>
      <path id="Path_10354" data-name="Path 10354" d="M190.755,28.169h4.263l.352,2.258h.276a8.237,8.237,0,0,1,2.877-1.925,9.412,9.412,0,0,1,3.545-.668,7.021,7.021,0,0,1,5.244,1.955q1.925,1.954,1.926,6.177V49.6h-5.147V36.261a4.25,4.25,0,0,0-.9-3.054,3.549,3.549,0,0,0-2.632-.914,6.418,6.418,0,0,0-2.554.54,5.261,5.261,0,0,0-2.1,1.622V49.6h-5.147V28.169Z" fill="#fff"/>
      <path id="Path_10355" data-name="Path 10355" d="M225.8,28.649a5.711,5.711,0,0,1,3.016,2.68,10.869,10.869,0,0,1,.992,5.07V49.6h-4.262l-.354-2.221h-.274a6.049,6.049,0,0,1-2.485,1.934,8.382,8.382,0,0,1-3.369.658,8.212,8.212,0,0,1-3.634-.746,5.416,5.416,0,0,1-2.347-2.111,6.153,6.153,0,0,1-.815-3.213,5.568,5.568,0,0,1,2.042-4.616q2.043-1.631,6.463-1.983l4.007-.373v-.845a5.28,5.28,0,0,0-.52-2.563,2.9,2.9,0,0,0-1.632-1.327,9.183,9.183,0,0,0-2.976-.393,19.548,19.548,0,0,0-2.848.226,18.614,18.614,0,0,0-2.946.677V28.756a19.737,19.737,0,0,1,3.25-.688,26.476,26.476,0,0,1,3.409-.235A14.32,14.32,0,0,1,225.8,28.649Zm-2.937,17.238a5.144,5.144,0,0,0,1.916-1.375V39.954l-3.515.314a5.46,5.46,0,0,0-2.956.972,2.665,2.665,0,0,0-.934,2.17,2.742,2.742,0,0,0,.836,2.16,3.556,3.556,0,0,0,2.445.746A5.8,5.8,0,0,0,222.859,45.887Z" fill="#fff"/>
      <path id="Path_10356" data-name="Path 10356" d="M234.038,49.029a3.032,3.032,0,0,1-.933-2.338,3.072,3.072,0,0,1,.924-2.347,3.979,3.979,0,0,1,4.988.011,3.08,3.08,0,0,1,.924,2.337,3.037,3.037,0,0,1-.933,2.328,3.989,3.989,0,0,1-4.97.009Z" fill="#fff"/>
      <path id="Path_10357" data-name="Path 10357" d="M247.238,58.409a22.075,22.075,0,0,1-3.37-.677V53.646a23.729,23.729,0,0,0,6.5.983,9.613,9.613,0,0,0,3.576-.56,3.871,3.871,0,0,0,2.033-1.8,6.962,6.962,0,0,0,.658-3.261V47.322h-.256a6.95,6.95,0,0,1-2.446,1.808,7.828,7.828,0,0,1-3.249.649,7.979,7.979,0,0,1-4.164-1.111,7.741,7.741,0,0,1-2.986-3.457,13.647,13.647,0,0,1-1.121-5.883q0-5.656,2.947-8.565t8.762-2.926a28.417,28.417,0,0,1,3.987.294,21.592,21.592,0,0,1,3.674.826V48.089a13.1,13.1,0,0,1-1.21,6.041,7.38,7.38,0,0,1-3.642,3.417,15.2,15.2,0,0,1-6.189,1.092A29.46,29.46,0,0,1,247.238,58.409Zm7.561-13.29a4.658,4.658,0,0,0,1.838-1.3V32.135a13.462,13.462,0,0,0-2.947-.334,5.834,5.834,0,0,0-4.566,1.689q-1.525,1.69-1.523,5.382,0,3.674,1.275,5.176a4.526,4.526,0,0,0,3.653,1.5A6.1,6.1,0,0,0,254.8,45.119Z" fill="#fff"/>
      <path id="Path_10358" data-name="Path 10358" d="M267.724,47.222q-2.641-2.768-2.641-8.289,0-5.559,2.6-8.328t7.375-2.77q4.776,0,7.377,2.77t2.6,8.31a14,14,0,0,1-1.21,6.168,8.1,8.1,0,0,1-3.447,3.692,10.974,10.974,0,0,1-5.323,1.219A9.663,9.663,0,0,1,267.724,47.222Zm10.922-2.81q1.209-1.611,1.21-5.461,0-3.907-1.21-5.53a4.783,4.783,0,0,0-7.169-.01q-1.209,1.61-1.21,5.46a12.908,12.908,0,0,0,.56,4.224,4.253,4.253,0,0,0,1.611,2.25,4.747,4.747,0,0,0,2.621.676A4.189,4.189,0,0,0,278.646,44.412Z" fill="#fff"/>
      <path id="Path_10359" data-name="Path 10359" d="M292.023,49.706a21.662,21.662,0,0,1-3.683-.834V17.855h5.147V30.29h.256a6.748,6.748,0,0,1,2.434-1.808,7.924,7.924,0,0,1,3.261-.647,8.061,8.061,0,0,1,4.2,1.11,7.627,7.627,0,0,1,2.968,3.5,14.408,14.408,0,0,1,1.1,6.02q0,5.736-2.927,8.633t-8.759,2.9A28.368,28.368,0,0,1,292.023,49.706Zm9-5.372q1.5-1.69,1.5-5.462,0-3.73-1.277-5.253a4.5,4.5,0,0,0-3.653-1.523,6.137,6.137,0,0,0-2.269.432,4.652,4.652,0,0,0-1.835,1.3V45.651a11.183,11.183,0,0,0,2.966.372A5.808,5.808,0,0,0,301.021,44.334Z" fill="#fff"/>
      <path id="Path_10360" data-name="Path 10360" d="M311.1,49.029a3.032,3.032,0,0,1-.933-2.338,3.072,3.072,0,0,1,.924-2.347,3.979,3.979,0,0,1,4.988.011A3.08,3.08,0,0,1,317,46.692a3.037,3.037,0,0,1-.933,2.328,3.989,3.989,0,0,1-4.97.009Z" fill="#fff"/>
      <path id="Path_10361" data-name="Path 10361" d="M332.909,28.649a5.726,5.726,0,0,1,3.016,2.68,10.894,10.894,0,0,1,.992,5.07V49.6h-4.264l-.351-2.221h-.277a6.016,6.016,0,0,1-2.485,1.934,8.377,8.377,0,0,1-3.368.658,8.208,8.208,0,0,1-3.635-.746,5.408,5.408,0,0,1-2.346-2.111,6.143,6.143,0,0,1-.815-3.213,5.568,5.568,0,0,1,2.042-4.616q2.041-1.631,6.463-1.983l4.008-.373v-.845a5.279,5.279,0,0,0-.522-2.563,2.9,2.9,0,0,0-1.63-1.327,9.189,9.189,0,0,0-2.977-.393,19.559,19.559,0,0,0-2.848.226,18.576,18.576,0,0,0-2.945.677V28.756a19.724,19.724,0,0,1,3.249-.688,26.487,26.487,0,0,1,3.409-.235A14.343,14.343,0,0,1,332.909,28.649Zm-2.937,17.238a5.159,5.159,0,0,0,1.916-1.375V39.954l-3.517.314a5.452,5.452,0,0,0-2.954.972,2.662,2.662,0,0,0-.935,2.17,2.745,2.745,0,0,0,.836,2.16,3.559,3.559,0,0,0,2.446.746A5.806,5.806,0,0,0,329.972,45.887Z" fill="#fff"/>
      <path id="Path_10362" data-name="Path 10362" d="M341.06,28.169H345.3l.393,2.789h.274a6.062,6.062,0,0,1,2.485-2.278,7.507,7.507,0,0,1,3.388-.767,10.862,10.862,0,0,1,1.711.139v4.675a11.741,11.741,0,0,0-2-.139,7.669,7.669,0,0,0-3.016.629,5.428,5.428,0,0,0-2.328,1.788V49.6h-5.147V28.169Z" fill="#fff"/>
    </g>
    <g id="Group_1974" data-name="Group 1974">
      <path id="Path_10363" data-name="Path 10363" d="M27,15.983a4.108,4.108,0,0,1,1.6.352l.077.012a13.674,13.674,0,0,0,1.482.179c.051,0,.1.006.153.007a4.574,4.574,0,0,1-.828-.377c-.16-.088-.321-.175-.509-.261A5.554,5.554,0,0,0,27.7,15.5a.167.167,0,0,1,0-.33l2.893-.433-2.89-.415a.167.167,0,0,1-.14-.131.17.17,0,0,1,.074-.176,3.9,3.9,0,0,1,1.132-.444,13.031,13.031,0,0,0,1.437-.4l.145-.052a4.481,4.481,0,0,1-.911-.032c-.176-.019-.359-.039-.568-.045a5.5,5.5,0,0,0-1.331.127.167.167,0,0,1-.127-.3l2.507-1.5-2.829.721a.168.168,0,0,1-.179-.067.164.164,0,0,1,0-.191,3.919,3.919,0,0,1,.875-.843,13.521,13.521,0,0,0,1.173-.924l.113-.1a4.457,4.457,0,0,1-.852.32c-.174.051-.349.1-.543.176a5.522,5.522,0,0,0-1.181.629.166.166,0,0,1-.218-.017.168.168,0,0,1-.016-.218L28,8.494l-2.34,1.747a.166.166,0,0,1-.262-.17,3.933,3.933,0,0,1,.485-1.115,13.962,13.962,0,0,0,.73-1.3c.023-.047.044-.093.064-.14a4.532,4.532,0,0,1-.665.623c-.144.117-.284.231-.433.371a5.465,5.465,0,0,0-.85,1.034.166.166,0,0,1-.207.068.168.168,0,0,1-.1-.2l.714-2.833-1.5,2.511a.168.168,0,0,1-.309-.058,3.886,3.886,0,0,1,.021-1.216,13.255,13.255,0,0,0,.174-1.483c0-.051.006-.1.007-.153a4.607,4.607,0,0,1-.376.831c-.085.157-.172.319-.257.509a5.48,5.48,0,0,0-.389,1.28.169.169,0,0,1-.165.143.168.168,0,0,1-.165-.143l-.424-2.869-.4,2.867a.169.169,0,0,1-.132.141.167.167,0,0,1-.175-.075,3.862,3.862,0,0,1-.443-1.133,13.487,13.487,0,0,0-.4-1.437c-.018-.049-.036-.1-.053-.145a4.494,4.494,0,0,1-.032.912c-.02.178-.039.36-.046.568A5.565,5.565,0,0,0,20.2,8.964a.167.167,0,0,1-.305.126L18.385,6.582l.728,2.828a.169.169,0,0,1-.067.179.167.167,0,0,1-.192,0,3.893,3.893,0,0,1-.842-.876,14.021,14.021,0,0,0-.924-1.17c-.034-.039-.068-.076-.1-.114a4.44,4.44,0,0,1,.32.853c.051.171.1.348.176.544A5.547,5.547,0,0,0,18.107,10a.167.167,0,0,1-.016.218.17.17,0,0,1-.218.016L15.522,8.5l1.752,2.338a.167.167,0,0,1,.007.191.169.169,0,0,1-.177.072,3.9,3.9,0,0,1-1.115-.486,13.753,13.753,0,0,0-1.3-.731c-.046-.023-.092-.044-.139-.065a4.54,4.54,0,0,1,.623.666c.114.141.229.283.37.433a5.521,5.521,0,0,0,1.032.85.164.164,0,0,1,.068.207.167.167,0,0,1-.195.1l-2.839-.712,2.515,1.493a.169.169,0,0,1,.078.174.167.167,0,0,1-.137.135,3.859,3.859,0,0,1-1.215-.022,13.321,13.321,0,0,0-1.483-.175l-.153-.007a4.6,4.6,0,0,1,.83.376c.149.081.317.172.509.259a5.517,5.517,0,0,0,1.279.39.167.167,0,0,1,0,.33l-2.9.426,2.9.422a.168.168,0,0,1,.066.307,3.916,3.916,0,0,1-1.131.446,13.171,13.171,0,0,0-1.436.407l-.145.052a4.427,4.427,0,0,1,.912.03c.043,0,.446.041.568.044.145,0,.3,0,.449-.008l.034-.024a6.753,6.753,0,0,1,2.069-.923.328.328,0,0,1,.3.063.335.335,0,0,1,.12.221,4.871,4.871,0,0,1,.468-.236,6.888,6.888,0,0,1,2.173-.5.326.326,0,0,1,.269.1.339.339,0,0,1,.087.192,4.543,4.543,0,0,1,.74-.213,6.912,6.912,0,0,1,2.233-.031.33.33,0,0,1,.253.181.337.337,0,0,1,.029.088,4.58,4.58,0,0,1,.7-.05,6.936,6.936,0,0,1,2.193.418.33.33,0,0,1,.215.24.094.094,0,0,0,0,.02" fill="#ffc60b"/>
      <path id="Path_10364" data-name="Path 10364" d="M22.788,12.325c2.814-.447,3.123.364,3.123.364a.245.245,0,0,0,.3.127s.191-.02.095-.247c0,0-.309-.921-1.805-1.08a5.977,5.977,0,0,0-1.617.046c-.249.044-.32.6-.32.6-.032.248.222.195.222.195" fill="#231f20"/>
      <path id="Path_10365" data-name="Path 10365" d="M20.389,12.872a3.489,3.489,0,0,0-1.127-.123,1.7,1.7,0,0,0-1.606.832c-.112.265.111.288.111.288a.285.285,0,0,0,.352-.148s.072-.225.6-.353a.639.639,0,0,0-.047.241.653.653,0,1,0,1.253-.257.835.835,0,0,1,.466.421c.046.093.143.133.385.133.26,0,.2-.17.2-.17a1.245,1.245,0,0,0-.58-.864" fill="#231f20"/>
      <path id="Path_10366" data-name="Path 10366" d="M22.731,13.9c.243,0,.34-.04.385-.133a.839.839,0,0,1,.466-.421.639.639,0,0,0-.052.255.651.651,0,1,0,1.255-.241c.524.13.6.353.6.353a.285.285,0,0,0,.352.148s.224-.023.111-.287a1.7,1.7,0,0,0-1.606-.832,3.431,3.431,0,0,0-1.127.123,1.241,1.241,0,0,0-.579.862s-.062.173.2.173" fill="#231f20"/>
      <path id="Path_10367" data-name="Path 10367" d="M17.287,12.816a.245.245,0,0,0,.3-.127s.31-.812,3.123-.364c0,0,.255.052.22-.195,0,0-.07-.551-.32-.6a5.98,5.98,0,0,0-1.617-.046c-1.5.159-1.805,1.081-1.805,1.081-.095.227.1.246.1.246" fill="#231f20"/>
      <path id="Path_10368" data-name="Path 10368" d="M14.868,19.382a5.263,5.263,0,0,0-1.26.076.244.244,0,0,1-.253-.372,3.887,3.887,0,0,0,.637-1.857.02.02,0,0,0-.009-.017.017.017,0,0,0-.018,0c-1.879,1.352-2.012,2.776-1.982,3.325a.017.017,0,0,0,.017.016q.062,0,.123,0a4.781,4.781,0,0,0,2.755-1.145.016.016,0,0,0,.006-.018.017.017,0,0,0-.016-.012" fill="#59aa47"/>
      <path id="Path_10369" data-name="Path 10369" d="M17.274,18.226a4.3,4.3,0,0,0-.656-.137,4.985,4.985,0,0,0-.625-.045h0a.246.246,0,0,1-.23-.158.243.243,0,0,1,.069-.271,3.972,3.972,0,0,0,1.1-1.406.017.017,0,0,0,0-.019.018.018,0,0,0-.018,0c-2.187.742-2.665,2.019-2.768,2.533a.017.017,0,0,0,.012.02,3.167,3.167,0,0,0,.868.116,4.508,4.508,0,0,0,1.473-.266,6.188,6.188,0,0,0,.779-.331.017.017,0,0,0,.009-.017.014.014,0,0,0-.011-.014" fill="#59aa47"/>
      <path id="Path_10370" data-name="Path 10370" d="M19.891,17.519a5.357,5.357,0,0,0-1.217-.409.246.246,0,0,1-.2-.207.243.243,0,0,1,.135-.252,3.341,3.341,0,0,0,1.258-.96.019.019,0,0,0,0-.019.018.018,0,0,0-.018-.008,4.5,4.5,0,0,0-2.573,1.1,2.265,2.265,0,0,0-.515.75.017.017,0,0,0,.009.022,3.479,3.479,0,0,0,1.462.3,4.955,4.955,0,0,0,.843-.076,6.1,6.1,0,0,0,.809-.2.016.016,0,0,0,.012-.015.013.013,0,0,0-.008-.017" fill="#59aa47"/>
      <path id="Path_10371" data-name="Path 10371" d="M21.6,16.778a.246.246,0,0,1,.014-.464,4.262,4.262,0,0,0,1.394-.677.017.017,0,0,0,.006-.019A.016.016,0,0,0,23,15.606a4.5,4.5,0,0,0-2.694.53,2.285,2.285,0,0,0-.668.624.016.016,0,0,0,0,.023,4.069,4.069,0,0,0,2.444.7c.23,0,.437-.013.608-.029a.019.019,0,0,0,.015-.012.017.017,0,0,0,0-.018,4.375,4.375,0,0,0-1.1-.644" fill="#59aa47"/>
      <path id="Path_10372" data-name="Path 10372" d="M24.468,16.973a.244.244,0,0,1,.109-.444,4.9,4.9,0,0,0,1.484-.391.016.016,0,0,0,.01-.017.017.017,0,0,0-.013-.015,4.486,4.486,0,0,0-2.719-.015,2.329,2.329,0,0,0-.785.479.02.02,0,0,0,0,.024,3.877,3.877,0,0,0,2.873,1.311h0a.017.017,0,0,0,.015-.009.017.017,0,0,0,0-.019,5.07,5.07,0,0,0-.97-.9" fill="#59aa47"/>
      <path id="Path_10373" data-name="Path 10373" d="M31.6,20.549a.017.017,0,0,0,.016-.017,3.222,3.222,0,0,0-.212-1.193,3.013,3.013,0,0,0-1.985-1.763.018.018,0,0,0-.018,0,.017.017,0,0,0,0,.018,5.027,5.027,0,0,0,.778,1.463.244.244,0,0,1-.247.39,3.343,3.343,0,0,0-1.248-.019.02.02,0,0,0-.014.014.018.018,0,0,0,.008.018,5.807,5.807,0,0,0,2.8,1.089c.045,0,.088,0,.13,0" fill="#59aa47"/>
      <path id="Path_10374" data-name="Path 10374" d="M29.333,18.774a.016.016,0,0,0,0-.016,2.52,2.52,0,0,0-2.076-.794,3.7,3.7,0,0,0-.889.168.018.018,0,0,0-.012.013.02.02,0,0,0,.006.017,3.336,3.336,0,0,0,2.061.772c.039,0,.077,0,.117,0a2.749,2.749,0,0,0,.785-.148c.007,0,.011,0,.012-.009" fill="#59aa47"/>
      <path id="Path_10375" data-name="Path 10375" d="M25.314,17.012a.021.021,0,0,0,.007.015,2.59,2.59,0,0,0,1.528.443,4.382,4.382,0,0,0,.8-.078,6.012,6.012,0,0,0,1.086-.317.018.018,0,0,0,.011-.015.017.017,0,0,0-.009-.016,3.878,3.878,0,0,0-1.216-.44,3.256,3.256,0,0,0-1.3.041,3.452,3.452,0,0,0-.9.353.021.021,0,0,0-.007.014" fill="#59aa47"/>
      <path id="Path_10376" data-name="Path 10376" d="M21.247,34.1H17.825a1.678,1.678,0,0,1-1.37-.57,1.756,1.756,0,0,1-.358-.842.408.408,0,0,1-.011-.077,3.242,3.242,0,0,1,.049-1.035,10.763,10.763,0,0,1,2.082-4.673,1.237,1.237,0,0,1-.237-.1,1.317,1.317,0,0,1-.6-1.422,3.736,3.736,0,0,1,.955-1.626A4.47,4.47,0,0,1,21.484,22.3a4.026,4.026,0,0,1,3.81,2.3,21.184,21.184,0,0,1,2.121,7.2l.014.091a2.08,2.08,0,0,1-.035.846.412.412,0,0,1-.022.076,1.582,1.582,0,0,1-.347.6,2.263,2.263,0,0,1-1.346.644,3.831,3.831,0,0,1-.6.048c-.067,0-.116,0-.14,0H22.273v4.839H37.55a26.738,26.738,0,0,0-1.25-8.166,22.155,22.155,0,0,0-3.4-6.653,16.314,16.314,0,0,0-5.022-4.464,12.292,12.292,0,0,0-12.23,0,16.3,16.3,0,0,0-5.021,4.464,22.155,22.155,0,0,0-3.4,6.653,26.677,26.677,0,0,0-1.25,8.166H21.247S21.247,34.1,21.247,34.1Z" fill="#05b4e9"/>
      <path id="Path_10377" data-name="Path 10377" d="M5.97,38.944a27.157,27.157,0,0,0,.723,6.271c6.832-.778,10.91-1.582,12.121-2.391a3.851,3.851,0,0,1,2.432-.922V38.944Z" fill="#fff"/>
      <path id="Path_10378" data-name="Path 10378" d="M22.273,42.019a5.525,5.525,0,0,1,1.56.527l.151-.006a6.754,6.754,0,0,1,2.65.6c.282.1.6.217.949.336A45,45,0,0,0,36.805,45.3a27.065,27.065,0,0,0,.744-6.359H22.273Z" fill="#fff"/>
      <path id="Path_10379" data-name="Path 10379" d="M28.5,48.694a1.323,1.323,0,0,1-.281.4,1.509,1.509,0,0,1-1.026.4,1.65,1.65,0,0,1-.254.4,1.591,1.591,0,0,1-1.337.522,1.711,1.711,0,0,1-.27.362,1.415,1.415,0,0,1-1.3.4,2.042,2.042,0,0,1-.528.306,2.156,2.156,0,0,1-1.226.1v4.052a.514.514,0,1,1-1.028,0v-3.88a1.942,1.942,0,0,1-.66.128,1.362,1.362,0,0,1-.269-.026,1.237,1.237,0,0,1-.725-.444,1.978,1.978,0,0,1-1.366-.2,1.022,1.022,0,0,1-.382-.479,2.6,2.6,0,0,1-.483-.1,1.349,1.349,0,0,1-.9-.753,2.979,2.979,0,0,1-.352-.033,1.287,1.287,0,0,1-1.039-.647A1,1,0,0,1,15,48.91c-2.177,1.12-4.663,2.239-5.779,2.733a20.564,20.564,0,0,0,1.408,2.12,16.311,16.311,0,0,0,5.021,4.464,13.2,13.2,0,0,0,2.7,1.138,1.191,1.191,0,0,1,.4-.436c.876-.572,2.542-.155,3.014-.021.471-.135,2.137-.551,3.014.021a1.175,1.175,0,0,1,.4.436,13,13,0,0,0,2.7-1.138A16.316,16.316,0,0,0,32.9,53.763a20.629,20.629,0,0,0,1.332-1.989,27.814,27.814,0,0,1-5.735-3.08" fill="#fff"/>
      <path id="Path_10380" data-name="Path 10380" d="M23.162,62.562a1.447,1.447,0,0,0,.044-.35,1.426,1.426,0,0,0-.037-.322,3.225,3.225,0,0,0,1.812-.915,1.5,1.5,0,0,0,.334-1.151,1.191,1.191,0,0,0-.541-.894c-.876-.572-2.542-.155-3.014-.021-.471-.135-2.137-.551-3.014.021a1.194,1.194,0,0,0-.541.894,1.486,1.486,0,0,0,.334,1.151,3.236,3.236,0,0,0,1.823.918,1.4,1.4,0,0,0-.036.319,1.43,1.43,0,0,0,.041.342,5.846,5.846,0,0,1-3.326,1.622,2.463,2.463,0,0,0,.509.61,6.511,6.511,0,0,0,3.15-1.607,1.36,1.36,0,0,0,.161.152,3,3,0,0,1-2.463,2,4.228,4.228,0,0,0,1.138.325,3.365,3.365,0,0,0,1.947-2.033,1.393,1.393,0,0,0,.283.028,1.433,1.433,0,0,0,.272-.026,3.37,3.37,0,0,0,1.947,2.03,4.133,4.133,0,0,0,1.138-.325,3,3,0,0,1-2.461-1.994,1.337,1.337,0,0,0,.165-.154,6.523,6.523,0,0,0,3.144,1.6,2.468,2.468,0,0,0,.508-.61,5.867,5.867,0,0,1-3.317-1.614" fill="#05b4e9"/>
      <path id="Path_10381" data-name="Path 10381" d="M24.4,59.5a.514.514,0,0,1,.237.4.824.824,0,0,1-.183.644,1.981,1.981,0,0,1-.878.536,1.269,1.269,0,0,0,.068-1.016,1.57,1.57,0,0,0-.544-.722,2.206,2.206,0,0,1,1.3.158" fill="#fff"/>
      <path id="Path_10382" data-name="Path 10382" d="M20.512,60.3c.253-.684,1.21-.694,1.248-.694a1.916,1.916,0,0,1,.546.091,1.021,1.021,0,0,1,.7.6.871.871,0,0,1-.29.834,1.437,1.437,0,0,0-1.913.007.873.873,0,0,1-.293-.841" fill="#fff"/>
      <path id="Path_10383" data-name="Path 10383" d="M19.943,61.078a1.968,1.968,0,0,1-.878-.536.825.825,0,0,1-.184-.644.508.508,0,0,1,.237-.4,1.636,1.636,0,0,1,.86-.181c.143,0,.291.008.441.023a1.547,1.547,0,0,0-.544.722,1.259,1.259,0,0,0,.068,1.016" fill="#fff"/>
      <path id="Path_10384" data-name="Path 10384" d="M21,62.209a.76.76,0,1,1,.76.76.762.762,0,0,1-.76-.76" fill="#fff"/>
      <path id="Path_10385" data-name="Path 10385" d="M25.971,64.783a6.528,6.528,0,0,1-3.144-1.6,1.419,1.419,0,0,1-.165.154,3,3,0,0,0,2.461,1.994,3.359,3.359,0,0,0,.848-.547" fill="#fff"/>
      <path id="Path_10386" data-name="Path 10386" d="M20.7,63.176a6.525,6.525,0,0,1-3.15,1.607,3.3,3.3,0,0,0,.848.546,3,3,0,0,0,2.463-2,1.426,1.426,0,0,1-.161-.151" fill="#fff"/>
      <path id="Path_10387" data-name="Path 10387" d="M40.875,43.013a.329.329,0,0,0-.113-.291.333.333,0,0,0-.229-.077q.1-.207.181-.429a6.623,6.623,0,0,0,.371-2.223.328.328,0,0,0-.37-.328c.049-.137.092-.278.13-.421A6.659,6.659,0,0,0,41,36.995a.327.327,0,0,0-.171-.259.321.321,0,0,0-.233-.03,5.011,5.011,0,0,0,.1-.5,6.654,6.654,0,0,0-.07-2.253.329.329,0,0,0-.2-.242.325.325,0,0,0-.174-.021c.021-.116.038-.233.05-.348a6.65,6.65,0,0,0-.177-2.247.329.329,0,0,0-.207-.233.325.325,0,0,0-.307.045h0a4.911,4.911,0,0,0,.013-.544,6.665,6.665,0,0,0-.484-2.2.328.328,0,0,0-.489-.152,4.783,4.783,0,0,0-.042-.5,6.637,6.637,0,0,0-.71-2.14.322.322,0,0,0-.256-.175.331.331,0,0,0-.246.074c-.024-.153-.056-.309-.1-.464a6.689,6.689,0,0,0-.957-2.046.334.334,0,0,0-.275-.145.324.324,0,0,0-.267.142,5.032,5.032,0,0,0-.2-.539,6.72,6.72,0,0,0-1.276-1.867.328.328,0,0,0-.308-.1.335.335,0,0,0-.2.13,4.845,4.845,0,0,0-.3-.528A6.607,6.607,0,0,0,32,18.232a.328.328,0,0,0-.5.116,3.77,3.77,0,0,0-1.8-1.271c.134.013.27.025.412.033a4.839,4.839,0,0,0,1.573-.145.414.414,0,0,0-.1-.81,3.5,3.5,0,0,1-1.834-.508c-.09-.05-.183-.1-.281-.15L31.8,15.15a.414.414,0,0,0,0-.82L29.494,14c.267-.071.578-.163.9-.274a4.848,4.848,0,0,0,1.4-.737.414.414,0,0,0-.4-.71,3.514,3.514,0,0,1-1.889.235c-.1-.011-.2-.022-.313-.031L31.2,11.276a.415.415,0,0,0-.316-.758l-2.265.577c.22-.169.475-.374.73-.6a4.864,4.864,0,0,0,1.009-1.217.415.415,0,0,0-.646-.5,3.517,3.517,0,0,1-1.655.941c-.1.028-.194.057-.3.09L29.15,7.928a.415.415,0,0,0-.582-.58l-1.878,1.4c.14-.243.3-.531.447-.841A4.861,4.861,0,0,0,27.6,6.4a.415.415,0,0,0-.788-.216,3.517,3.517,0,0,1-1.167,1.5c-.076.062-.155.126-.236.194l.57-2.264a.415.415,0,0,0-.759-.313l-1.2,2.022c.037-.278.072-.609.092-.955a4.85,4.85,0,0,0-.15-1.573.414.414,0,0,0-.809.1,3.505,3.505,0,0,1-.5,1.836c-.046.085-.093.172-.141.265L22.169,4.7a.414.414,0,0,0-.41-.355h0a.415.415,0,0,0-.41.357L21.02,6.991c-.071-.264-.161-.571-.269-.887a4.89,4.89,0,0,0-.736-1.4.414.414,0,0,0-.71.4A3.5,3.5,0,0,1,19.538,7c-.011.1-.022.208-.031.32L18.29,5.3a.415.415,0,0,0-.757.318l.579,2.253c-.168-.22-.37-.47-.593-.722A4.843,4.843,0,0,0,16.3,6.141a.415.415,0,0,0-.5.646,3.5,3.5,0,0,1,.94,1.655c.029.1.058.2.092.3l-1.891-1.4a.415.415,0,0,0-.579.582l1.4,1.869c-.24-.139-.525-.294-.83-.442a4.827,4.827,0,0,0-1.51-.465.415.415,0,0,0-.216.788,3.507,3.507,0,0,1,1.5,1.169c.063.078.128.157.2.24l-2.277-.57a.415.415,0,0,0-.313.759l2.019,1.2c-.276-.037-.6-.071-.944-.091a4.919,4.919,0,0,0-1.573.148.414.414,0,0,0,.1.81,3.5,3.5,0,0,1,1.835.5c.087.047.174.1.269.144l-2.316.341a.415.415,0,0,0,0,.821l2.333.34c-.27.072-.589.166-.915.28a4.8,4.8,0,0,0-1.4.741.415.415,0,0,0,.407.709,3.933,3.933,0,0,1,1.23-.274,9.331,9.331,0,0,0-1.037,1.01c-.093.117-.18.239-.261.362a.328.328,0,0,0-.48-.089,6.756,6.756,0,0,0-1.557,1.644,4.726,4.726,0,0,0-.293.521.328.328,0,0,0-.514-.045,6.708,6.708,0,0,0-1.275,1.867,4.9,4.9,0,0,0-.192.512.32.32,0,0,0-.485.044,6.655,6.655,0,0,0-1.041,2,4.947,4.947,0,0,0-.127.525.327.327,0,0,0-.535.064,6.674,6.674,0,0,0-.73,2.134,4.932,4.932,0,0,0-.047.51.328.328,0,0,0-.514.14,6.616,6.616,0,0,0-.454,2.206,4.624,4.624,0,0,0,.018.5.328.328,0,0,0-.484.208,6.673,6.673,0,0,0-.176,2.247c.014.13.033.257.056.384a.322.322,0,0,0-.144.024.329.329,0,0,0-.2.242,6.654,6.654,0,0,0-.07,2.253,5.014,5.014,0,0,0,.108.513.33.33,0,0,0-.313.287A6.657,6.657,0,0,0,2.7,39.265c.032.147.071.292.116.432a.328.328,0,0,0-.368.32,6.623,6.623,0,0,0,.31,2.233,4.769,4.769,0,0,0,.223.551l-.041-.012a.329.329,0,0,0-.3.074.324.324,0,0,0-.1.294A6.637,6.637,0,0,0,3.229,45.3c.063.118.132.232.2.342a.325.325,0,0,0-.152.09.331.331,0,0,0-.082.3,6.678,6.678,0,0,0,.854,2.09q.134.207.284.4a.327.327,0,0,0-.27.437,6.707,6.707,0,0,0,1.091,1.979c.1.117.2.23.3.336a.323.323,0,0,0-.19.149.331.331,0,0,0-.01.313,6.7,6.7,0,0,0,1.316,1.839q.159.153.329.289a.327.327,0,0,0-.144.477,6.724,6.724,0,0,0,1.5,1.694,4.69,4.69,0,0,0,.513.349c-.039.011-.062.02-.07.022a.329.329,0,0,0-.126.537,7.786,7.786,0,0,0,1.749,1.4,4.682,4.682,0,0,0,1.44.544,3.165,3.165,0,0,0,1.162.014A.31.31,0,0,0,13,58.886a17.336,17.336,0,0,0,3.214,1.79,15.754,15.754,0,0,0,2.847.9c.2.043.392.079.574.11a2.546,2.546,0,0,1-1.093-.714,1.554,1.554,0,0,1-.13-.186,15.615,15.615,0,0,1-1.96-.676,16.69,16.69,0,0,1-3.076-1.71c.005-.019.008-.032.009-.037a3.278,3.278,0,0,0-.11-1A14.357,14.357,0,0,0,15.3,58.784a13.638,13.638,0,0,0,2.9,1.209,1.672,1.672,0,0,1,.011-.172,1.252,1.252,0,0,1,.141-.458,13.039,13.039,0,0,1-2.7-1.137,16.324,16.324,0,0,1-5.021-4.464,20.471,20.471,0,0,1-1.408-2.121c1.116-.493,3.6-1.614,5.778-2.733a1.076,1.076,0,0,0,.078.283,1.282,1.282,0,0,0,1.039.647,3,3,0,0,0,.352.033,1.342,1.342,0,0,0,.9.753,2.624,2.624,0,0,0,.483.1,1.016,1.016,0,0,0,.382.479,1.984,1.984,0,0,0,1.366.2,1.242,1.242,0,0,0,.724.444,1.369,1.369,0,0,0,.269.026,1.937,1.937,0,0,0,.66-.128v3.88a.514.514,0,0,0,1.028,0V51.572a2.157,2.157,0,0,0,1.226-.1,2.025,2.025,0,0,0,.528-.306,1.414,1.414,0,0,0,1.3-.4,1.7,1.7,0,0,0,.27-.362,1.553,1.553,0,0,0,1.591-.923,1.516,1.516,0,0,0,1.026-.4,1.305,1.305,0,0,0,.281-.4,27.833,27.833,0,0,0,5.733,3.08,20.34,20.34,0,0,1-1.332,1.99,16.314,16.314,0,0,1-5.022,4.464,13.184,13.184,0,0,1-2.7,1.138,1.29,1.29,0,0,1,.14.458,1.692,1.692,0,0,1,.011.173,13.658,13.658,0,0,0,2.9-1.21,14.687,14.687,0,0,0,2.044-1.433,3.175,3.175,0,0,0-.117,1.006.254.254,0,0,0,0,.049,13.671,13.671,0,0,1-2.257,1.37A14.894,14.894,0,0,1,25.2,60.789l-.115.029a1.857,1.857,0,0,1-.112.156,2.57,2.57,0,0,1-1.117.723,14.19,14.19,0,0,0,1.516-.318,15.465,15.465,0,0,0,2.811-1.057,14.167,14.167,0,0,0,2.358-1.437c.017.006.034.013.049.017a3.185,3.185,0,0,0,1.17-.013,4.717,4.717,0,0,0,1.44-.544,7.786,7.786,0,0,0,1.749-1.4.328.328,0,0,0-.127-.537l-.051-.017a5.005,5.005,0,0,0,.522-.355,6.767,6.767,0,0,0,1.5-1.694.327.327,0,0,0-.144-.477q.169-.136.329-.289A6.7,6.7,0,0,0,38.3,51.738a.327.327,0,0,0-.247-.471c.115-.115.227-.237.331-.364a6.679,6.679,0,0,0,1.091-1.978.326.326,0,0,0-.037-.295.33.33,0,0,0-.259-.145h0c.1-.119.189-.245.276-.374a6.687,6.687,0,0,0,.887-2.076.327.327,0,0,0-.34-.407q.135-.213.251-.443a6.606,6.606,0,0,0,.622-2.172m-.389-2.569a.018.018,0,0,1,.009.016A5.753,5.753,0,0,1,40.185,42a3.894,3.894,0,0,1-.682,1.2,3,3,0,0,1-.817.678l-.008,0a.017.017,0,0,1-.013-.007A3.58,3.58,0,0,1,38,41.625a4.937,4.937,0,0,1,.09-.843.015.015,0,0,1,.013-.013.019.019,0,0,1,.018.006,4.306,4.306,0,0,1,.632,1.159.244.244,0,0,0,.452.026,3.919,3.919,0,0,1,1.26-1.515.011.011,0,0,1,.016,0m-.061-2.938a.019.019,0,0,1,.018,0,.016.016,0,0,1,.011.015,5.8,5.8,0,0,1-.155,1.56,3.9,3.9,0,0,1-.559,1.261,2.962,2.962,0,0,1-.745.753l-.009,0a.016.016,0,0,1-.013-.006,4.375,4.375,0,0,1-.849-2.966.018.018,0,0,1,.012-.016.018.018,0,0,1,.019.005,5.088,5.088,0,0,1,.721,1.047.242.242,0,0,0,.233.136.246.246,0,0,0,.216-.16,3.843,3.843,0,0,1,1.1-1.629m-.319-2.985a.018.018,0,0,1,.018-.005.019.019,0,0,1,.012.014,5.784,5.784,0,0,1,0,1.568,3.881,3.881,0,0,1-.433,1.311,2.944,2.944,0,0,1-.68.833.015.015,0,0,1-.011,0,.021.021,0,0,1-.011,0,4.493,4.493,0,0,1-1.1-2.857.017.017,0,0,1,.009-.017.019.019,0,0,1,.02,0,5.3,5.3,0,0,1,.8.949.246.246,0,0,0,.245.113.243.243,0,0,0,.2-.181,3.914,3.914,0,0,1,.939-1.731m-.467-2.836a.016.016,0,0,1,.017,0,.018.018,0,0,1,.012.013,5.727,5.727,0,0,1,.071,1.566,3.865,3.865,0,0,1-.371,1.33,2.982,2.982,0,0,1-.628.853.017.017,0,0,1-.022,0,3.806,3.806,0,0,1-1.129-1.985,6.145,6.145,0,0,1-.145-.832.017.017,0,0,1,.009-.016.015.015,0,0,1,.019,0,5.173,5.173,0,0,1,.868.936.244.244,0,0,0,.439-.09,3.929,3.929,0,0,1,.86-1.772m-22.653.184c.006-.038.013-.076.021-.116A10.061,10.061,0,0,1,18.735,27.7a6.679,6.679,0,0,1,1.013-1.1c.061-.045.123-.094.183-.146a.465.465,0,0,0-.568-.736c-.02.013-.089.063-.2.152-.434.3-.682.2-.747.167a.451.451,0,0,1-.16-.5,2.9,2.9,0,0,1,.725-1.164l.023-.025a3.629,3.629,0,0,1,2.5-1.154l.044,0a2.982,2.982,0,0,1,1.076.157,3.2,3.2,0,0,1,1.879,1.665,17.982,17.982,0,0,1,1.4,3.614,5.85,5.85,0,0,1-1.534-.861.466.466,0,0,0-.593.718,6.394,6.394,0,0,0,2.375,1.183c.091.427.172.874.256,1.4a6.643,6.643,0,0,0-1.283-.441A6.48,6.48,0,0,1,24.4,30.4a7.453,7.453,0,0,1-1.622-.937.465.465,0,0,0-.578.729,8.444,8.444,0,0,0,1.853,1.071,7.38,7.38,0,0,0,.831.253c1.1.293,1.6.517,1.629,1.065a.692.692,0,0,1-.139.228,2.008,2.008,0,0,1-1.4.406H23.91a4.439,4.439,0,0,1-2.184-.639c-2.351-1.516-3.421-1.278-4.74-.707m4.007,1.346H17.822a.826.826,0,0,1-.683-.246.615.615,0,0,1-.076-.12c1.329-.6,2.029-.814,3.93.366m1.281,5.729V34.1h2.662c.025,0,.072,0,.14,0a3.84,3.84,0,0,0,.6-.048,2.263,2.263,0,0,0,1.346-.644,1.616,1.616,0,0,0,.347-.6.412.412,0,0,0,.022-.076,2.132,2.132,0,0,0,.035-.845l-.014-.091a21.142,21.142,0,0,0-2.121-7.2,4.024,4.024,0,0,0-3.81-2.3,4.476,4.476,0,0,0-3.147,1.456,3.7,3.7,0,0,0-.955,1.626,1.319,1.319,0,0,0,.6,1.422,1.245,1.245,0,0,0,.237.1,10.746,10.746,0,0,0-2.082,4.673,3.211,3.211,0,0,0-.049,1.035.494.494,0,0,0,.01.076,1.747,1.747,0,0,0,.358.842,1.677,1.677,0,0,0,1.37.57h3.422v7.8a3.851,3.851,0,0,0-2.432.922c-1.211.81-5.289,1.614-12.121,2.391a27.083,27.083,0,0,1-.723-6.271A26.708,26.708,0,0,1,7.221,30.78a22.132,22.132,0,0,1,3.4-6.653,16.324,16.324,0,0,1,5.021-4.464,12.3,12.3,0,0,1,12.23,0A16.327,16.327,0,0,1,32.9,24.127a22.179,22.179,0,0,1,3.4,6.653,26.677,26.677,0,0,1,1.25,8.166,27.033,27.033,0,0,1-.744,6.36,44.884,44.884,0,0,1-9.221-1.828c-.349-.119-.668-.234-.95-.336a6.738,6.738,0,0,0-2.65-.6l-.151.006a5.6,5.6,0,0,0-1.56-.527V38.944Zm6.458-21.871a6.012,6.012,0,0,1-1.086.317,4.374,4.374,0,0,1-.8.078,2.59,2.59,0,0,1-1.528-.443.018.018,0,0,1-.007-.015A.017.017,0,0,1,25.323,17a3.4,3.4,0,0,1,.9-.354,3.238,3.238,0,0,1,1.3-.04,3.812,3.812,0,0,1,1.216.44.018.018,0,0,1,.009.016.019.019,0,0,1-.012.015m.6,1.685a.018.018,0,0,1,0,.016.019.019,0,0,1-.011.012,2.792,2.792,0,0,1-.785.148c-.039,0-.078,0-.117,0a3.336,3.336,0,0,1-2.061-.772.017.017,0,0,1,.006-.03,3.685,3.685,0,0,1,.889-.168,2.515,2.515,0,0,1,2.075.792m-3.269-2.619a4.924,4.924,0,0,1-1.484.391.244.244,0,0,0-.109.444,5.092,5.092,0,0,1,.972.9.018.018,0,0,1,0,.019.016.016,0,0,1-.015.009h0a3.876,3.876,0,0,1-2.873-1.311.018.018,0,0,1,0-.024,2.308,2.308,0,0,1,.785-.479,4.493,4.493,0,0,1,2.719.015.018.018,0,0,1,.013.015.031.031,0,0,1-.011.018m-3.054-.5a4.306,4.306,0,0,1-1.393.677.245.245,0,0,0-.015.464,4.4,4.4,0,0,1,1.1.644.019.019,0,0,1,0,.019.017.017,0,0,1-.015.012c-.171.017-.378.029-.608.029a4.073,4.073,0,0,1-2.444-.7.019.019,0,0,1,0-.024,2.3,2.3,0,0,1,.668-.624A4.5,4.5,0,0,1,23,15.609a.019.019,0,0,1,.015.012.016.016,0,0,1,0,.018m-3.137.05a3.35,3.35,0,0,1-1.258.96.244.244,0,0,0,.063.459,5.316,5.316,0,0,1,1.217.409.019.019,0,0,1,.01.017.017.017,0,0,1-.012.015,5.915,5.915,0,0,1-.809.2,4.883,4.883,0,0,1-.843.076,3.46,3.46,0,0,1-1.462-.3.016.016,0,0,1-.008-.022,2.258,2.258,0,0,1,.514-.75,4.5,4.5,0,0,1,2.573-1.1.018.018,0,0,1,.018.008.024.024,0,0,1,0,.019m-4.04,1.927a.244.244,0,0,0,.161.429h0a5,5,0,0,1,.625.045,4.149,4.149,0,0,1,.657.137.017.017,0,0,1,.012.015.018.018,0,0,1-.009.017,6.176,6.176,0,0,1-.778.331,4.5,4.5,0,0,1-1.473.266,3.129,3.129,0,0,1-.868-.116.017.017,0,0,1-.012-.02c.1-.515.582-1.792,2.768-2.532a.02.02,0,0,1,.019,0,.017.017,0,0,1,0,.019,4.029,4.029,0,0,1-1.107,1.4m22.3,13.069a3.876,3.876,0,0,1,.6-1.872.018.018,0,0,1,.017-.008.019.019,0,0,1,.014.012,5.73,5.73,0,0,1,.286,1.542,3.839,3.839,0,0,1-.185,1.366,2.951,2.951,0,0,1-.505.93.019.019,0,0,1-.013.007l-.009,0a3.644,3.644,0,0,1-1.418-1.828,5.624,5.624,0,0,1-.244-.8.016.016,0,0,1,.007-.018.017.017,0,0,1,.019,0,5.244,5.244,0,0,1,1,.816.243.243,0,0,0,.261.065.233.233,0,0,0,.163-.211m-.974-2.706a3.865,3.865,0,0,1,.407-1.923.017.017,0,0,1,.031,0,5.7,5.7,0,0,1,.445,1.506A3.854,3.854,0,0,1,38,28.94a2.933,2.933,0,0,1-.406.976.017.017,0,0,1-.015.007.01.01,0,0,1-.007,0,3.666,3.666,0,0,1-1.6-1.673,5.569,5.569,0,0,1-.325-.767.016.016,0,0,1,.005-.018.017.017,0,0,1,.019,0,5.33,5.33,0,0,1,1.082.71.245.245,0,0,0,.266.039.241.241,0,0,0,.142-.23m-1.362-2.3h0a.244.244,0,0,0,.119-.249,3.851,3.851,0,0,1,.178-1.953.016.016,0,0,1,.014-.011.02.02,0,0,1,.017.009,5.831,5.831,0,0,1,.62,1.446,3.869,3.869,0,0,1,.121,1.374,2.941,2.941,0,0,1-.287,1.014.016.016,0,0,1-.015.009h-.006a3.6,3.6,0,0,1-1.835-1.5,4.839,4.839,0,0,1-.4-.753.015.015,0,0,1,0-.018.017.017,0,0,1,.018,0,3.918,3.918,0,0,1,1.182.612.233.233,0,0,0,.272.021m-1.833-2.347a.243.243,0,0,0,.284,0,.241.241,0,0,0,.089-.269,4.3,4.3,0,0,1-.123-1.936.017.017,0,0,1,.012-.014.017.017,0,0,1,.018.006,5.827,5.827,0,0,1,.828,1.306,3.867,3.867,0,0,1,.342,1.337,2.865,2.865,0,0,1-.119,1.044.017.017,0,0,1-.016.012h0a3.708,3.708,0,0,1-2.006-1.18,5.58,5.58,0,0,1-.56-.7.019.019,0,0,1,0-.019.018.018,0,0,1,.016-.009,2.836,2.836,0,0,1,1.24.428m-1.83-2.091a.242.242,0,0,0,.27-.063.246.246,0,0,0,.036-.276A3.89,3.89,0,0,1,31.988,19a.018.018,0,0,1,.01-.015.019.019,0,0,1,.019,0,5.8,5.8,0,0,1,1.018,1.159,4.046,4.046,0,0,1,.554,1.272,3.109,3.109,0,0,1,.068,1.074.017.017,0,0,1-.017.015H33.6a3.55,3.55,0,0,1-2.055-.821,6.108,6.108,0,0,1-.7-.634.019.019,0,0,1,0-.019.021.021,0,0,1,.015-.011l.092,0a3.725,3.725,0,0,1,1.192.223m-.725-1.9a3.222,3.222,0,0,1,.212,1.193.018.018,0,0,1-.017.017c-.043,0-.086,0-.13,0a5.806,5.806,0,0,1-2.8-1.088.018.018,0,0,1-.008-.018.017.017,0,0,1,.014-.013,3.365,3.365,0,0,1,1.248.019.245.245,0,0,0,.248-.39A5,5,0,0,1,29.4,17.6a.017.017,0,0,1,0-.018.019.019,0,0,1,.018,0,3.01,3.01,0,0,1,1.985,1.761M13.185,16.373c.048-.019.1-.037.145-.053a13.407,13.407,0,0,1,1.436-.407,3.916,3.916,0,0,0,1.131-.446.167.167,0,0,0-.066-.307l-2.9-.422,2.9-.426a.167.167,0,0,0,0-.33,5.575,5.575,0,0,1-1.279-.39c-.192-.086-.36-.177-.51-.259a4.486,4.486,0,0,0-.829-.376l.153.007a13.793,13.793,0,0,1,1.483.175,3.861,3.861,0,0,0,1.215.022.167.167,0,0,0,.058-.308L13.606,11.36l2.839.711a.167.167,0,0,0,.128-.3,5.521,5.521,0,0,1-1.033-.85c-.141-.15-.256-.293-.37-.434a4.387,4.387,0,0,0-.623-.666l.14.064a13.314,13.314,0,0,1,1.3.731A3.9,3.9,0,0,0,17.1,11.1a.169.169,0,0,0,.177-.072.165.165,0,0,0-.007-.191L15.521,8.5l2.353,1.741a.166.166,0,0,0,.217-.017A.17.17,0,0,0,18.108,10a5.5,5.5,0,0,1-.627-1.181c-.073-.195-.126-.372-.176-.544a4.568,4.568,0,0,0-.32-.852c.036.038.07.075.1.114a13.72,13.72,0,0,1,.922,1.173,3.917,3.917,0,0,0,.842.876.165.165,0,0,0,.191,0,.169.169,0,0,0,.067-.179l-.728-2.828,1.511,2.508a.167.167,0,0,0,.306-.126,5.6,5.6,0,0,1-.127-1.333c.007-.207.027-.39.046-.568a4.554,4.554,0,0,0,.032-.911c.019.048.036.1.052.145a13.422,13.422,0,0,1,.4,1.437,3.923,3.923,0,0,0,.443,1.133.168.168,0,0,0,.308-.066l.405-2.869.42,2.87a.167.167,0,0,0,.33,0A5.5,5.5,0,0,1,22.9,7.524c.085-.189.172-.35.257-.508a4.488,4.488,0,0,0,.376-.832c0,.052,0,.1-.006.154a13.7,13.7,0,0,1-.174,1.482,3.888,3.888,0,0,0-.021,1.216.168.168,0,0,0,.309.059l1.5-2.511-.714,2.833a.168.168,0,0,0,.306.127,5.553,5.553,0,0,1,.849-1.034c.149-.141.29-.254.433-.371a4.386,4.386,0,0,0,.665-.623c-.021.047-.043.093-.064.139a13.594,13.594,0,0,1-.729,1.3,3.92,3.92,0,0,0-.485,1.115.167.167,0,0,0,.263.17L28,8.5l-1.742,2.347a.165.165,0,0,0,.016.218.17.17,0,0,0,.218.016,5.545,5.545,0,0,1,1.181-.628c.192-.073.367-.125.543-.176a4.558,4.558,0,0,0,.853-.32c-.038.036-.075.07-.114.1a13.723,13.723,0,0,1-1.173.924,3.946,3.946,0,0,0-.875.843.165.165,0,0,0,0,.191.169.169,0,0,0,.179.067l2.829-.721-2.507,1.5a.168.168,0,0,0,.127.306,5.553,5.553,0,0,1,1.332-.127c.209.007.391.026.568.045a4.564,4.564,0,0,0,.912.032c-.048.018-.1.036-.145.052a13.262,13.262,0,0,1-1.437.4,3.914,3.914,0,0,0-1.132.444.167.167,0,0,0,.066.307l2.89.415-2.893.433a.167.167,0,0,0,0,.33,5.569,5.569,0,0,1,1.279.393c.188.085.348.173.509.261a4.476,4.476,0,0,0,.828.377c-.051,0-.1,0-.153-.007a13.48,13.48,0,0,1-1.483-.179l-.077-.013a4.064,4.064,0,0,0-1.6-.351l0-.015a.333.333,0,0,0-.214-.24,6.936,6.936,0,0,0-2.193-.418,4.582,4.582,0,0,0-.7.049.314.314,0,0,0-.029-.088.332.332,0,0,0-.253-.181,6.877,6.877,0,0,0-2.232.031,4.416,4.416,0,0,0-.74.212.332.332,0,0,0-.357-.3,6.867,6.867,0,0,0-2.173.5,4.354,4.354,0,0,0-.468.236.33.33,0,0,0-.417-.284,6.747,6.747,0,0,0-2.068.923l-.035.024c-.154.009-.305.012-.449.008-.122,0-.526-.04-.568-.045a4.217,4.217,0,0,0-.912-.033m.779.84a.019.019,0,0,1,.019,0,.016.016,0,0,1,.008.017,3.859,3.859,0,0,1-.637,1.857.244.244,0,0,0,.253.372,5.217,5.217,0,0,1,1.26-.076.019.019,0,0,1,.015.012.018.018,0,0,1-.006.019,4.787,4.787,0,0,1-2.755,1.145q-.062,0-.123,0a.018.018,0,0,1-.017-.017c-.028-.548.1-1.974,1.983-3.325M9.986,21.431a3.877,3.877,0,0,1,.551-1.267,5.843,5.843,0,0,1,1.05-1.182.019.019,0,0,1,.018,0,.018.018,0,0,1,.01.015,3.857,3.857,0,0,1-.453,1.909.241.241,0,0,0,.031.272.244.244,0,0,0,.264.072,4.818,4.818,0,0,1,1.226-.222.021.021,0,0,1,.017.01.015.015,0,0,1,0,.019,7.752,7.752,0,0,1-.723.635,3.485,3.485,0,0,1-1.933.829l-.084,0a.021.021,0,0,1-.017-.014,2.888,2.888,0,0,1,.047-1.071m-.645-.338a.019.019,0,0,1,.018-.006.019.019,0,0,1,.013.013,3.838,3.838,0,0,1-.143,1.957.242.242,0,0,0,.085.272.245.245,0,0,0,.285.006,2.839,2.839,0,0,1,1.222-.425.02.02,0,0,1,.017.009.019.019,0,0,1,0,.019,4.408,4.408,0,0,1-2.543,1.884h0a.015.015,0,0,1-.016-.011c-.172-.524-.413-1.936,1.067-3.718m-2.55,3.821a5.751,5.751,0,0,1,.681-1.419.017.017,0,0,1,.017-.008A.016.016,0,0,1,7.5,23.5,3.849,3.849,0,0,1,7.6,25.46a.244.244,0,0,0,.412.221A2.369,2.369,0,0,1,9.2,25.1a.02.02,0,0,1,.017.007.019.019,0,0,1,0,.018,5.3,5.3,0,0,1-.479.8,3.544,3.544,0,0,1-1.859,1.4H6.878a.018.018,0,0,1-.015-.01,2.959,2.959,0,0,1-.247-1.029,3.753,3.753,0,0,1,.175-1.365M5.414,27.552a5.763,5.763,0,0,1,.459-1.5.018.018,0,0,1,.015-.01.016.016,0,0,1,.015.009,3.859,3.859,0,0,1,.389,1.929.245.245,0,0,0,.138.232.243.243,0,0,0,.267-.036,5.076,5.076,0,0,1,1.145-.725.017.017,0,0,1,.019,0,.017.017,0,0,1,.005.018,3.655,3.655,0,0,1-.264.717,3.745,3.745,0,0,1-1.743,1.728H5.85a.016.016,0,0,1-.014-.008,2.915,2.915,0,0,1-.394-.975,3.846,3.846,0,0,1-.028-1.379m-.747,1.237a.016.016,0,0,1,.014-.012.016.016,0,0,1,.017.007,3.874,3.874,0,0,1,.63,1.864.244.244,0,0,0,.431.138A4.308,4.308,0,0,1,6.8,29.921a.017.017,0,0,1,.018,0,.021.021,0,0,1,.008.017,3.852,3.852,0,0,1-.168.767,3.511,3.511,0,0,1-1.514,1.925l-.009,0a.016.016,0,0,1-.013-.006,2.974,2.974,0,0,1-.519-.924,3.817,3.817,0,0,1-.2-1.364,5.845,5.845,0,0,1,.266-1.551m-.843,2.867a.017.017,0,0,1,.013-.014.017.017,0,0,1,.018.006,3.9,3.9,0,0,1,.856,1.772.245.245,0,0,0,.19.19.242.242,0,0,0,.249-.1,5.093,5.093,0,0,1,.905-.963.018.018,0,0,1,.019,0,.02.02,0,0,1,.009.017,4.463,4.463,0,0,1-.105.762A3.858,3.858,0,0,1,4.77,35.4a.016.016,0,0,1-.011.005.019.019,0,0,1-.012,0,2.941,2.941,0,0,1-.622-.847,3.865,3.865,0,0,1-.371-1.33,5.694,5.694,0,0,1,.07-1.567m-.433,2.876a.017.017,0,0,1,.03-.009,3.906,3.906,0,0,1,.939,1.731.245.245,0,0,0,.459.044,3.6,3.6,0,0,1,.761-1,.017.017,0,0,1,.019,0,.018.018,0,0,1,.01.016,5.427,5.427,0,0,1-.071.861,3.5,3.5,0,0,1-1.019,2.062.021.021,0,0,1-.012.005.024.024,0,0,1-.012,0,2.973,2.973,0,0,1-.667-.823A3.882,3.882,0,0,1,3.394,36.1a5.769,5.769,0,0,1,0-1.566M3.153,37.55a.019.019,0,0,1,.011-.015.017.017,0,0,1,.018,0c.062.057.124.119.183.183a3.988,3.988,0,0,1,.863,1.489.244.244,0,0,0,.473-.036,2.116,2.116,0,0,1,.625-1.086.019.019,0,0,1,.018,0,.016.016,0,0,1,.011.014,4.5,4.5,0,0,1,0,1.426,2.9,2.9,0,0,1-.841,1.656.021.021,0,0,1-.012.005.017.017,0,0,1-.01,0c-.452-.324-1.488-1.329-1.343-3.633m-.118,2.933a.017.017,0,0,1,.019,0c.068.051.136.106.2.162a3.991,3.991,0,0,1,1.017,1.392.246.246,0,0,0,.223.145h0a.245.245,0,0,0,.223-.151,4.991,4.991,0,0,1,.7-1.155.017.017,0,0,1,.018-.006.018.018,0,0,1,.012.013,3.773,3.773,0,0,1-.694,3.076.015.015,0,0,1-.013.007.014.014,0,0,1-.009,0A3.918,3.918,0,0,1,3.027,40.5a.016.016,0,0,1,.008-.016m.152,3.05a.017.017,0,0,1,.007-.017.015.015,0,0,1,.018,0,3.924,3.924,0,0,1,1.47,1.324.244.244,0,0,0,.441-.085l.017,0-.017,0a4.973,4.973,0,0,1,.5-1.279.018.018,0,0,1,.015-.009.017.017,0,0,1,.014.01,3.45,3.45,0,0,1,.264.778,3.269,3.269,0,0,1-.409,2.4.016.016,0,0,1-.015.009H5.484a3,3,0,0,1-.915-.557,3.856,3.856,0,0,1-.851-1.093,5.845,5.845,0,0,1-.531-1.477m.691,2.829a.018.018,0,0,1,.005-.018.015.015,0,0,1,.018,0c.078.032.156.069.234.108a4.055,4.055,0,0,1,1.332,1.1.244.244,0,0,0,.433-.117,5.155,5.155,0,0,1,.376-1.262.018.018,0,0,1,.016-.01.015.015,0,0,1,.015.01A3.812,3.812,0,0,1,6.422,49.3a.018.018,0,0,1-.016.01H6.4a3.929,3.929,0,0,1-2.523-2.947m1.705,4.194a5.836,5.836,0,0,1-.8-1.349.015.015,0,0,1,0-.018.018.018,0,0,1,.018-.005c.08.024.162.05.244.08a4.05,4.05,0,0,1,1.451.945.243.243,0,0,0,.416-.167,5.069,5.069,0,0,1,.222-1.279.02.02,0,0,1,.015-.012.015.015,0,0,1,.016.009,5.111,5.111,0,0,1,.352.751,3.584,3.584,0,0,1,.128,2.325.016.016,0,0,1-.017.012h0a3.016,3.016,0,0,1-1-.377,3.915,3.915,0,0,1-1.044-.914M6,51.9a.019.019,0,0,1,0-.019.015.015,0,0,1,.017-.007,3.973,3.973,0,0,1,1.8.825.245.245,0,0,0,.395-.22,4.448,4.448,0,0,1,.064-1.266.016.016,0,0,1,.013-.013.021.021,0,0,1,.018.007,5.735,5.735,0,0,1,.43.73,3.768,3.768,0,0,1,.414,2.246.017.017,0,0,1-.017.014h0a2.991,2.991,0,0,1-1.035-.26,3.942,3.942,0,0,1-1.146-.789A5.873,5.873,0,0,1,6,51.9m5.627,4.9a4.653,4.653,0,0,1-.3-1.239.018.018,0,0,1,.009-.017.015.015,0,0,1,.019,0,3.629,3.629,0,0,1,1.458,2.789.018.018,0,0,1-.014.016,2.134,2.134,0,0,1-.382.031,2.96,2.96,0,0,1-.581-.059,5.3,5.3,0,0,1-2.5-1.434.017.017,0,0,1-.005-.018.019.019,0,0,1,.014-.012,4.006,4.006,0,0,1,1.969.263.245.245,0,0,0,.316-.322M9.408,55.035a.244.244,0,0,0,.275-.008.241.241,0,0,0,.093-.258,4.037,4.037,0,0,1-.08-1.255.017.017,0,0,1,.012-.014.02.02,0,0,1,.019.006,4.464,4.464,0,0,1,1.165,2.867.019.019,0,0,1-.016.017c-.033,0-.071,0-.116,0a3.113,3.113,0,0,1-.941-.154A3.939,3.939,0,0,1,8.6,55.572a5.876,5.876,0,0,1-1.083-1.141.017.017,0,0,1,0-.019.015.015,0,0,1,.017-.009,3.95,3.95,0,0,1,1.88.632m9.557-6.412c-.078.052-.153.1-.224.154a2.314,2.314,0,0,0-.966,1.155,1.628,1.628,0,0,1-.192-.049c-.4-.132-.419-.334-.427-.409-.012-.207.1-.393.4-.684a1.449,1.449,0,0,1,.913-.51.588.588,0,0,1,.263.062.433.433,0,0,1,.229.2.17.17,0,0,1,0,.078m.5,2.016a1.349,1.349,0,0,1-.807-.072.29.29,0,0,1-.122-.232c-.036-.34.405-.7.67-.889a1.926,1.926,0,0,1,.933-.455.478.478,0,0,1,.322.129c.084.073.127.14.124.194a.694.694,0,0,1-.269.369,2.33,2.33,0,0,0-.851.956m2.074.069a1.676,1.676,0,0,1-1.072.379.458.458,0,0,1-.247-.139,2.168,2.168,0,0,1,.916-.818c.459-.266.659-.112.665-.107.136.131.128.207.125.232-.016.163-.249.362-.356.431a.372.372,0,0,0-.031.022m-4.359-2.679c-.06.052-.123.109-.19.173a2.046,2.046,0,0,0-.6.889c-.059-.005-.117-.011-.17-.02-.262-.043-.408-.126-.437-.19-.017-.04-.068-.158.085-.359a1.518,1.518,0,0,1,1.05-.527A.688.688,0,0,1,17.01,48l.034,0c.032,0,.081.012.138.023m10.493.506a.8.8,0,0,1-.542.18,7.22,7.22,0,0,0-2.349-2.089.408.408,0,0,0-.546.186.408.408,0,0,0,.186.546,6.424,6.424,0,0,1,2.047,1.835.857.857,0,0,1-.121.185.839.839,0,0,1-.668.259,3.557,3.557,0,0,0-.544-.785,7.393,7.393,0,0,0-1.076-.915.41.41,0,0,0-.3-.068.407.407,0,0,0-.164.734,6.507,6.507,0,0,1,.928.781,2.77,2.77,0,0,1,.424.6.981.981,0,0,1-.185.255.623.623,0,0,1-.542.171,4.534,4.534,0,0,0-.743-1.127.408.408,0,1,0-.61.541,3.822,3.822,0,0,1,.56.817,1.374,1.374,0,0,1-.213.108,1.344,1.344,0,0,1-.657.081,1.137,1.137,0,0,0,.181-.492,1.074,1.074,0,0,0-.363-.9,1.126,1.126,0,0,0-.982-.265A1.093,1.093,0,0,0,21,48.5a1.279,1.279,0,0,0-1.282-.263h0a1.211,1.211,0,0,0-.619-.624A1.418,1.418,0,0,0,18,47.536a1.668,1.668,0,0,0-.893-.345,2.256,2.256,0,0,0-1.7.622c-2.326,1.244-5.317,2.591-6.534,3.129a23.6,23.6,0,0,1-1.617-3.849c-.119-.369-.231-.749-.334-1.132,3.419-.392,6.17-.793,8.175-1.194a12.873,12.873,0,0,0,4.154-1.315,3.009,3.009,0,0,1,2.113-.774c.18.015.345.034.5.054a2.208,2.208,0,0,0-.418.233c-.321.227-.519.387-.693.529a5.661,5.661,0,0,1-.538.4,5.637,5.637,0,0,1-.562.3c-.476.234-.851.417-.973.742a.99.99,0,0,0,.161.991,1.479,1.479,0,0,0,1.433.451,4.044,4.044,0,0,0,1.657-.5c.17-.1.321-.2.453-.285a1.867,1.867,0,0,1,.506-.278l.024-.006a2.24,2.24,0,0,1,1.425.147,8.058,8.058,0,0,1,1.428.779,9.521,9.521,0,0,1,2.091,1.923.652.652,0,0,1-.182.375m1.477-.315a4.141,4.141,0,0,1-.709-.634l0,0-.013-.016c-.032-.038-.052-.062-.059-.072a10.142,10.142,0,0,0-2.155-1.939c-.751-.488-2.148-1.4-3.5-1.031a2.416,2.416,0,0,0-.775.393c-.128.085-.26.172-.411.259a3.2,3.2,0,0,1-1.3.391c-.385.022-.627.025-.724-.111s-.083-.166-.07-.205a3.782,3.782,0,0,1,.578-.322,6.486,6.486,0,0,0,.648-.348,6.389,6.389,0,0,0,.607-.452c.163-.133.348-.283.647-.494a2.556,2.556,0,0,1,1.524-.308h.012l.317-.007.251-.01a6.172,6.172,0,0,1,2.353.555c.285.1.609.22.975.344.055.018,1.38.435,3.18.863a38.579,38.579,0,0,0,6.039.988c-.1.35-.2.7-.308,1.035a23.472,23.472,0,0,1-1.687,3.982,28.344,28.344,0,0,1-5.418-2.857m5.05,8.664a5.253,5.253,0,0,1-2.5,1.433,2.952,2.952,0,0,1-.581.059,2.178,2.178,0,0,1-.382-.031.016.016,0,0,1-.014-.016,3.068,3.068,0,0,1,.845-2.164,5.089,5.089,0,0,1,.626-.608.017.017,0,0,1,.019,0,.018.018,0,0,1,.009.017,5.156,5.156,0,0,1-.313,1.223.243.243,0,0,0,.314.321,4,4,0,0,1,1.968-.262.016.016,0,0,1,.014.012.014.014,0,0,1,0,.018m1.847-2.454a5.83,5.83,0,0,1-1.082,1.139,3.96,3.96,0,0,1-1.224.667,3.077,3.077,0,0,1-.941.154q-.067,0-.117,0a.019.019,0,0,1-.017-.017,3.622,3.622,0,0,1,.645-2.21,5.378,5.378,0,0,1,.508-.671.015.015,0,0,1,.018-.005.017.017,0,0,1,.012.015,5.062,5.062,0,0,1-.069,1.279.244.244,0,0,0,.1.25.247.247,0,0,0,.27.005,4,4,0,0,1,1.879-.633.016.016,0,0,1,.016.009.015.015,0,0,1,0,.021m.56-1.284a3.93,3.93,0,0,1-1.146.789,3.037,3.037,0,0,1-1.036.26h0a.018.018,0,0,1-.017-.014,3.608,3.608,0,0,1,.409-2.265,5.356,5.356,0,0,1,.434-.72.018.018,0,0,1,.018-.007.017.017,0,0,1,.013.013,5.078,5.078,0,0,1,.066,1.281.245.245,0,0,0,.127.238.241.241,0,0,0,.268-.024,4.007,4.007,0,0,1,1.8-.824.018.018,0,0,1,.017.007.019.019,0,0,1,0,.019,5.844,5.844,0,0,1-.956,1.247m1.353-2.628a3.95,3.95,0,0,1-1.045.916,2.994,2.994,0,0,1-.995.377h0A.018.018,0,0,1,35.9,51.8a3.657,3.657,0,0,1,.135-2.329,5.049,5.049,0,0,1,.337-.73.017.017,0,0,1,.017-.009.017.017,0,0,1,.015.012,5.635,5.635,0,0,1,.228,1.268.243.243,0,0,0,.16.219.24.24,0,0,0,.263-.064,3.536,3.536,0,0,1,1.444-.982,2.552,2.552,0,0,1,.261-.074.016.016,0,0,1,.017.006.019.019,0,0,1,0,.018,5.832,5.832,0,0,1-.82,1.384M39,47.77a3.93,3.93,0,0,1-.948,1.014,3.041,3.041,0,0,1-.954.473h-.005a.017.017,0,0,1-.016-.011,3.859,3.859,0,0,1-.1-2.341,5.961,5.961,0,0,1,.262-.817.018.018,0,0,1,.032,0,5.647,5.647,0,0,1,.355,1.3.246.246,0,0,0,.175.2.242.242,0,0,0,.256-.081,3.962,3.962,0,0,1,1.584-1.186.019.019,0,0,1,.019,0,.02.02,0,0,1,.005.018A5.871,5.871,0,0,1,39,47.77m.759-2.867a3.884,3.884,0,0,1-.815,1.121,2.972,2.972,0,0,1-.886.585h-.007a.016.016,0,0,1-.015-.009,3.8,3.8,0,0,1-.4-2.355,5.607,5.607,0,0,1,.166-.827.016.016,0,0,1,.014-.012.016.016,0,0,1,.017.008,5.664,5.664,0,0,1,.514,1.277.245.245,0,0,0,.445.072,3.936,3.936,0,0,1,1.424-1.37.019.019,0,0,1,.019,0,.017.017,0,0,1,.007.017,5.8,5.8,0,0,1-.482,1.491" fill="#231f20"/>
      <path id="Path_10388" data-name="Path 10388" d="M34.194,56.854a4.026,4.026,0,0,0-1.968.262.244.244,0,0,1-.315-.321,5.1,5.1,0,0,0,.313-1.223.019.019,0,0,0-.009-.017.017.017,0,0,0-.019,0,5.017,5.017,0,0,0-.626.608,3.071,3.071,0,0,0-.845,2.164.017.017,0,0,0,.014.016,2.188,2.188,0,0,0,.382.031,2.945,2.945,0,0,0,.581-.059,5.246,5.246,0,0,0,2.5-1.433.02.02,0,0,0,.005-.018.026.026,0,0,0-.015-.012" fill="#59aa47"/>
      <path id="Path_10389" data-name="Path 10389" d="M11.355,55.542a.017.017,0,0,0-.019,0,.017.017,0,0,0-.009.017,4.658,4.658,0,0,0,.3,1.239.244.244,0,0,1-.314.321,3.975,3.975,0,0,0-1.97-.263.016.016,0,0,0-.014.012.018.018,0,0,0,.005.018,5.308,5.308,0,0,0,2.5,1.435,2.96,2.96,0,0,0,.581.059,2.265,2.265,0,0,0,.382-.03.017.017,0,0,0,.014-.017,3.636,3.636,0,0,0-1.458-2.789" fill="#59aa47"/>
      <path id="Path_10390" data-name="Path 10390" d="M36.035,54.4a4,4,0,0,0-1.879.633.244.244,0,0,1-.37-.255,5.015,5.015,0,0,0,.069-1.279.017.017,0,0,0-.012-.015.015.015,0,0,0-.018.005,5.716,5.716,0,0,0-.508.671,3.616,3.616,0,0,0-.645,2.21.019.019,0,0,0,.016.017c.034,0,.072,0,.117,0a3.115,3.115,0,0,0,.94-.155,3.955,3.955,0,0,0,1.225-.667,5.855,5.855,0,0,0,1.081-1.139.016.016,0,0,0,0-.019.018.018,0,0,0-.017-.01" fill="#59aa47"/>
      <path id="Path_10391" data-name="Path 10391" d="M37.547,51.875a3.986,3.986,0,0,0-1.8.823.244.244,0,0,1-.4-.214,5.132,5.132,0,0,0-.066-1.281.017.017,0,0,0-.014-.013.017.017,0,0,0-.018.007,5.65,5.65,0,0,0-.434.721,3.605,3.605,0,0,0-.409,2.264.018.018,0,0,0,.017.014h0a3.052,3.052,0,0,0,1.036-.26,3.955,3.955,0,0,0,1.146-.789,5.87,5.87,0,0,0,.955-1.245.019.019,0,0,0,0-.019.015.015,0,0,0-.015-.008" fill="#59aa47"/>
      <path id="Path_10392" data-name="Path 10392" d="M38.762,49.108c-.087.02-.174.046-.261.075a3.538,3.538,0,0,0-1.443.982.244.244,0,0,1-.424-.155,5.635,5.635,0,0,0-.228-1.268.017.017,0,0,0-.015-.012.018.018,0,0,0-.017.009,5.012,5.012,0,0,0-.337.731A3.664,3.664,0,0,0,35.9,51.8a.017.017,0,0,0,.017.012h0a2.964,2.964,0,0,0,.995-.377,3.93,3.93,0,0,0,1.045-.915,5.832,5.832,0,0,0,.819-1.387.015.015,0,0,0,0-.018.014.014,0,0,0-.016-.006" fill="#59aa47"/>
      <path id="Path_10393" data-name="Path 10393" d="M39.637,46.328a3.962,3.962,0,0,0-1.584,1.186.244.244,0,0,1-.431-.124,5.573,5.573,0,0,0-.354-1.3.017.017,0,0,0-.032,0,5.785,5.785,0,0,0-.262.817,3.859,3.859,0,0,0,.1,2.341.017.017,0,0,0,.016.011H37.1a3.012,3.012,0,0,0,.955-.473A3.894,3.894,0,0,0,39,47.769a5.758,5.758,0,0,0,.663-1.421.02.02,0,0,0,0-.018.021.021,0,0,0-.019,0" fill="#59aa47"/>
      <path id="Path_10394" data-name="Path 10394" d="M40.21,43.394a3.97,3.97,0,0,0-1.425,1.37.245.245,0,0,1-.445-.071,5.635,5.635,0,0,0-.513-1.278.017.017,0,0,0-.017-.008.017.017,0,0,0-.014.012,5.435,5.435,0,0,0-.167.827,3.805,3.805,0,0,0,.4,2.355.016.016,0,0,0,.015.009h.007a3.007,3.007,0,0,0,.887-.585,3.9,3.9,0,0,0,.815-1.121,5.735,5.735,0,0,0,.481-1.491.019.019,0,0,0-.007-.018.015.015,0,0,0-.018,0" fill="#59aa47"/>
      <path id="Path_10395" data-name="Path 10395" d="M39.208,41.96a.245.245,0,0,1-.453-.027,4.307,4.307,0,0,0-.632-1.158.018.018,0,0,0-.017-.006.016.016,0,0,0-.012.014,4.925,4.925,0,0,0-.09.842,3.574,3.574,0,0,0,.659,2.246.017.017,0,0,0,.014.007.011.011,0,0,0,.008,0A2.978,2.978,0,0,0,39.5,43.2a3.9,3.9,0,0,0,.682-1.2,5.793,5.793,0,0,0,.31-1.536.019.019,0,0,0-.009-.017.017.017,0,0,0-.019,0,3.924,3.924,0,0,0-1.258,1.514" fill="#59aa47"/>
      <path id="Path_10396" data-name="Path 10396" d="M39.1,39.3a.242.242,0,0,1-.233-.136,5.214,5.214,0,0,0-.721-1.047.017.017,0,0,0-.019,0,.015.015,0,0,0-.011.015,4.369,4.369,0,0,0,.849,2.966.016.016,0,0,0,.013.006.019.019,0,0,0,.01,0,2.955,2.955,0,0,0,.744-.752A3.829,3.829,0,0,0,40.3,39.08a5.718,5.718,0,0,0,.155-1.56.017.017,0,0,0-.01-.015.017.017,0,0,0-.019,0,3.89,3.89,0,0,0-1.1,1.63.239.239,0,0,1-.213.158" fill="#59aa47"/>
      <path id="Path_10397" data-name="Path 10397" d="M38.97,36.433a.247.247,0,0,1-.246-.112,5.166,5.166,0,0,0-.8-.949.017.017,0,0,0-.019,0,.015.015,0,0,0-.009.017A4.488,4.488,0,0,0,39,38.243a.015.015,0,0,0,.011,0,.021.021,0,0,0,.011,0,2.931,2.931,0,0,0,.679-.833,3.88,3.88,0,0,0,.434-1.312,5.776,5.776,0,0,0,0-1.567.017.017,0,0,0-.012-.014.016.016,0,0,0-.018.005,3.915,3.915,0,0,0-.94,1.732.241.241,0,0,1-.2.179" fill="#59aa47"/>
      <path id="Path_10398" data-name="Path 10398" d="M38.591,33.648a.243.243,0,0,1-.25-.1,5.209,5.209,0,0,0-.868-.936.017.017,0,0,0-.028.015,6.019,6.019,0,0,0,.145.832,3.8,3.8,0,0,0,1.129,1.984.015.015,0,0,0,.011,0,.016.016,0,0,0,.011-.005,2.97,2.97,0,0,0,.629-.852,3.865,3.865,0,0,0,.371-1.33,5.767,5.767,0,0,0-.071-1.566.017.017,0,0,0-.013-.014.019.019,0,0,0-.018.006,3.9,3.9,0,0,0-.856,1.772.244.244,0,0,1-.192.191" fill="#59aa47"/>
      <path id="Path_10399" data-name="Path 10399" d="M37.971,30.9a.243.243,0,0,1-.261-.065,5.129,5.129,0,0,0-1-.816.015.015,0,0,0-.019,0,.018.018,0,0,0-.007.018,5.376,5.376,0,0,0,.244.8,3.658,3.658,0,0,0,1.418,1.828l.009,0a.016.016,0,0,0,.013-.006,2.952,2.952,0,0,0,.505-.931,3.839,3.839,0,0,0,.185-1.366,5.748,5.748,0,0,0-.286-1.542.019.019,0,0,0-.014-.012.018.018,0,0,0-.017.008,3.886,3.886,0,0,0-.6,1.872.243.243,0,0,1-.163.211" fill="#59aa47"/>
      <path id="Path_10400" data-name="Path 10400" d="M36.753,28.17a5.263,5.263,0,0,0-1.082-.71.018.018,0,0,0-.024.021,5.454,5.454,0,0,0,.325.766,3.652,3.652,0,0,0,1.6,1.674l.008,0a.016.016,0,0,0,.014-.008,2.952,2.952,0,0,0,.4-.975,3.876,3.876,0,0,0,.043-1.378,5.83,5.83,0,0,0-.445-1.506.018.018,0,0,0-.015-.01c-.008,0-.012,0-.015.009a3.87,3.87,0,0,0-.407,1.923.245.245,0,0,1-.408.192" fill="#59aa47"/>
      <path id="Path_10401" data-name="Path 10401" d="M34.321,25.053a.015.015,0,0,0,0,.018,4.879,4.879,0,0,0,.4.753,3.607,3.607,0,0,0,1.836,1.5h.006a.018.018,0,0,0,.015-.01,2.918,2.918,0,0,0,.287-1.014,3.846,3.846,0,0,0-.121-1.374,5.789,5.789,0,0,0-.621-1.447.018.018,0,0,0-.017-.009.015.015,0,0,0-.014.011,3.877,3.877,0,0,0-.178,1.953.245.245,0,0,1-.4.228,3.918,3.918,0,0,0-1.182-.612s-.009,0-.014.007" fill="#59aa47"/>
      <path id="Path_10402" data-name="Path 10402" d="M32.708,22.917a.021.021,0,0,0,0,.019,5.58,5.58,0,0,0,.56.7,3.7,3.7,0,0,0,2.005,1.18h0a.017.017,0,0,0,.017-.012,2.911,2.911,0,0,0,.12-1.045,3.867,3.867,0,0,0-.342-1.337,5.786,5.786,0,0,0-.827-1.306.02.02,0,0,0-.018-.006.019.019,0,0,0-.013.014,4.3,4.3,0,0,0,.124,1.936.243.243,0,0,1-.089.269.247.247,0,0,1-.284,0,2.771,2.771,0,0,0-1.24-.426.014.014,0,0,0-.016.008" fill="#59aa47"/>
      <path id="Path_10403" data-name="Path 10403" d="M32.406,21.18a.244.244,0,0,1-.271.063,3.758,3.758,0,0,0-1.19-.221c-.031,0-.061,0-.092,0a.015.015,0,0,0-.015.011.015.015,0,0,0,0,.018,6.48,6.48,0,0,0,.7.634,3.546,3.546,0,0,0,2.055.821h.042a.017.017,0,0,0,.016-.015,3.115,3.115,0,0,0-.068-1.075,4.014,4.014,0,0,0-.554-1.272,5.694,5.694,0,0,0-1.019-1.159.017.017,0,0,0-.019,0,.018.018,0,0,0-.01.015A3.9,3.9,0,0,0,32.44,20.9a.25.25,0,0,1-.034.276" fill="#59aa47"/>
      <path id="Path_10404" data-name="Path 10404" d="M10.76,56.39c.045,0,.083,0,.116,0a.017.017,0,0,0,.017-.016A4.459,4.459,0,0,0,9.728,53.5.016.016,0,0,0,9.71,53.5a.017.017,0,0,0-.012.015,4.058,4.058,0,0,0,.079,1.255.244.244,0,0,1-.368.266,3.983,3.983,0,0,0-1.88-.635.016.016,0,0,0-.017.009.019.019,0,0,0,0,.019A5.818,5.818,0,0,0,8.6,55.568a3.982,3.982,0,0,0,1.224.667,3.075,3.075,0,0,0,.94.155" fill="#59aa47"/>
      <path id="Path_10405" data-name="Path 10405" d="M9.136,54.195h0a.018.018,0,0,0,.018-.014,3.777,3.777,0,0,0-.414-2.246,5.735,5.735,0,0,0-.43-.73.018.018,0,0,0-.018-.007.017.017,0,0,0-.013.013,4.406,4.406,0,0,0-.064,1.266.245.245,0,0,1-.124.242.241.241,0,0,1-.27-.022,4,4,0,0,0-1.8-.826A.019.019,0,0,0,6,51.879.019.019,0,0,0,6,51.9a5.773,5.773,0,0,0,.956,1.247,3.947,3.947,0,0,0,1.146.79,2.967,2.967,0,0,0,1.035.26" fill="#59aa47"/>
      <path id="Path_10406" data-name="Path 10406" d="M7.627,51.848h0a.02.02,0,0,0,.018-.012,3.584,3.584,0,0,0-.128-2.325,5.171,5.171,0,0,0-.351-.752.017.017,0,0,0-.017-.008.018.018,0,0,0-.015.012,5.03,5.03,0,0,0-.221,1.279.244.244,0,0,1-.417.167,4.031,4.031,0,0,0-1.451-.945c-.082-.031-.164-.059-.244-.082a.019.019,0,0,0-.018.006.015.015,0,0,0,0,.018,5.787,5.787,0,0,0,.8,1.348,3.95,3.95,0,0,0,1.045.916,2.982,2.982,0,0,0,1,.377" fill="#59aa47"/>
      <path id="Path_10407" data-name="Path 10407" d="M6.4,49.311h.005a.017.017,0,0,0,.016-.011,3.809,3.809,0,0,0-.115-3.125.018.018,0,0,0-.015-.01.015.015,0,0,0-.015.01A5.106,5.106,0,0,0,5.9,47.438a.244.244,0,0,1-.433.117,4.048,4.048,0,0,0-1.332-1.1c-.076-.04-.155-.075-.234-.108a.015.015,0,0,0-.018,0,.017.017,0,0,0-.005.018A3.936,3.936,0,0,0,6.4,49.311" fill="#59aa47"/>
      <path id="Path_10408" data-name="Path 10408" d="M4.571,46.1a2.986,2.986,0,0,0,.915.558h.006a.019.019,0,0,0,.015-.009,3.274,3.274,0,0,0,.409-2.4,3.535,3.535,0,0,0-.264-.778.016.016,0,0,0-.014-.01.019.019,0,0,0-.016.008,4.952,4.952,0,0,0-.5,1.279l.017,0-.017,0a.244.244,0,0,1-.441.084,3.919,3.919,0,0,0-1.47-1.323.015.015,0,0,0-.019,0,.017.017,0,0,0-.006.018,5.759,5.759,0,0,0,.533,1.476A3.833,3.833,0,0,0,4.571,46.1" fill="#59aa47"/>
      <path id="Path_10409" data-name="Path 10409" d="M4.733,43.963l.009,0a.021.021,0,0,0,.014-.007,3.764,3.764,0,0,0,.691-3.076.015.015,0,0,0-.012-.013.017.017,0,0,0-.018.006,4.949,4.949,0,0,0-.7,1.155.247.247,0,0,1-.223.151h0a.242.242,0,0,1-.223-.146,3.991,3.991,0,0,0-1.017-1.392c-.065-.057-.133-.112-.2-.162a.017.017,0,0,0-.018,0,.018.018,0,0,0-.01.016,3.921,3.921,0,0,0,1.709,3.467" fill="#59aa47"/>
      <path id="Path_10410" data-name="Path 10410" d="M4.495,41.183a.019.019,0,0,0,.01,0,.021.021,0,0,0,.012-.005,2.906,2.906,0,0,0,.841-1.656,4.5,4.5,0,0,0,0-1.426.016.016,0,0,0-.011-.014.018.018,0,0,0-.018,0A2.137,2.137,0,0,0,4.7,39.175a.244.244,0,0,1-.473.036,3.974,3.974,0,0,0-.863-1.489c-.059-.063-.121-.125-.183-.183a.015.015,0,0,0-.018,0,.016.016,0,0,0-.011.015c-.144,2.3.892,3.308,1.343,3.632" fill="#59aa47"/>
      <path id="Path_10411" data-name="Path 10411" d="M3.828,37.41a3,3,0,0,0,.667.824.015.015,0,0,0,.011,0,.016.016,0,0,0,.011-.005,3.5,3.5,0,0,0,1.02-2.062,5.324,5.324,0,0,0,.071-.862.018.018,0,0,0-.01-.016.017.017,0,0,0-.019,0,3.633,3.633,0,0,0-.762,1,.246.246,0,0,1-.459-.044,3.9,3.9,0,0,0-.939-1.732.019.019,0,0,0-.019,0,.015.015,0,0,0-.009.014,5.736,5.736,0,0,0,0,1.567,3.862,3.862,0,0,0,.434,1.31" fill="#59aa47"/>
      <path id="Path_10412" data-name="Path 10412" d="M4.124,34.552a2.911,2.911,0,0,0,.622.847.018.018,0,0,0,.012.005.021.021,0,0,0,.011,0,3.862,3.862,0,0,0,1.208-2.077,4.463,4.463,0,0,0,.105-.762.02.02,0,0,0-.009-.017.019.019,0,0,0-.019,0,5.1,5.1,0,0,0-.9.963.243.243,0,0,1-.439-.089,3.9,3.9,0,0,0-.856-1.772.016.016,0,0,0-.018-.006.017.017,0,0,0-.012.014,5.727,5.727,0,0,0-.071,1.566,3.83,3.83,0,0,0,.37,1.33" fill="#59aa47"/>
      <path id="Path_10413" data-name="Path 10413" d="M5.125,32.625a.018.018,0,0,0,.013.006.014.014,0,0,0,.009,0A3.5,3.5,0,0,0,6.661,30.7a3.784,3.784,0,0,0,.168-.767.017.017,0,0,0-.008-.017.017.017,0,0,0-.018,0,4.337,4.337,0,0,0-1.043.865.244.244,0,0,1-.431-.138,3.857,3.857,0,0,0-.63-1.864.016.016,0,0,0-.017-.007.016.016,0,0,0-.014.012A5.8,5.8,0,0,0,4.4,30.335a3.843,3.843,0,0,0,.2,1.364,2.909,2.909,0,0,0,.518.926" fill="#59aa47"/>
      <path id="Path_10414" data-name="Path 10414" d="M5.836,29.906a.017.017,0,0,0,.014.008l.008,0A3.745,3.745,0,0,0,7.6,28.184a3.7,3.7,0,0,0,.264-.717.017.017,0,0,0-.005-.018.019.019,0,0,0-.018,0,5.03,5.03,0,0,0-1.146.725.244.244,0,0,1-.4-.2A3.864,3.864,0,0,0,5.9,26.046a.017.017,0,0,0-.015-.009h0a.015.015,0,0,0-.015.01,5.725,5.725,0,0,0-.459,1.5,3.862,3.862,0,0,0,.03,1.378,2.877,2.877,0,0,0,.392.977" fill="#59aa47"/>
      <path id="Path_10415" data-name="Path 10415" d="M6.859,27.31a.018.018,0,0,0,.015.01h.005a3.54,3.54,0,0,0,1.859-1.4,5.3,5.3,0,0,0,.479-.8.017.017,0,0,0,0-.018A.018.018,0,0,0,9.2,25.1a2.366,2.366,0,0,0-1.192.583.244.244,0,0,1-.412-.221A3.848,3.848,0,0,0,7.5,23.5a.021.021,0,0,0-.014-.012.014.014,0,0,0-.016.007,5.707,5.707,0,0,0-.681,1.42A3.846,3.846,0,0,0,6.61,26.28a2.98,2.98,0,0,0,.249,1.03" fill="#59aa47"/>
      <path id="Path_10416" data-name="Path 10416" d="M8.29,24.823h0a4.405,4.405,0,0,0,2.543-1.884.018.018,0,0,0,0-.019.02.02,0,0,0-.017-.009,2.825,2.825,0,0,0-1.222.425.245.245,0,0,1-.285-.006.242.242,0,0,1-.085-.272A3.862,3.862,0,0,0,9.371,21.1a.018.018,0,0,0-.012-.013.017.017,0,0,0-.018,0C7.86,22.875,8.1,24.288,8.273,24.811a.018.018,0,0,0,.017.012" fill="#59aa47"/>
      <path id="Path_10417" data-name="Path 10417" d="M9.955,22.514c.028,0,.055,0,.084,0a3.473,3.473,0,0,0,1.932-.83,7.47,7.47,0,0,0,.723-.635.017.017,0,0,0,0-.019.02.02,0,0,0-.016-.011,4.9,4.9,0,0,0-1.226.223.244.244,0,0,1-.3-.343,3.853,3.853,0,0,0,.454-1.91.018.018,0,0,0-.01-.015.015.015,0,0,0-.018,0,5.84,5.84,0,0,0-1.05,1.182,3.862,3.862,0,0,0-.55,1.267,2.906,2.906,0,0,0-.047,1.07.016.016,0,0,0,.016.016" fill="#59aa47"/>
      <path id="Path_10418" data-name="Path 10418" d="M17.139,32.971a.832.832,0,0,0,.683.246h3.171c-1.9-1.181-2.6-.968-3.93-.364a1,1,0,0,0,.076.118" fill="#ef4123"/>
      <path id="Path_10419" data-name="Path 10419" d="M24.885,31.518a7.444,7.444,0,0,1-.831-.253,8.341,8.341,0,0,1-1.852-1.07.465.465,0,0,1,.577-.729A7.529,7.529,0,0,0,24.4,30.4a6.494,6.494,0,0,0,.721.217,6.576,6.576,0,0,1,1.283.441c-.084-.524-.165-.971-.255-1.4a6.373,6.373,0,0,1-2.375-1.184.465.465,0,0,1,.593-.716,5.878,5.878,0,0,0,1.535.861,18.088,18.088,0,0,0-1.4-3.614,3.208,3.208,0,0,0-1.879-1.665,3.009,3.009,0,0,0-1.076-.157l-.044,0a3.64,3.64,0,0,0-2.5,1.154.272.272,0,0,1-.023.025,2.935,2.935,0,0,0-.725,1.164.455.455,0,0,0,.16.5c.066.038.314.136.747-.167.107-.089.177-.14.2-.152a.465.465,0,0,1,.568.736c-.06.051-.122.1-.183.145a6.636,6.636,0,0,0-1.013,1.1,10.1,10.1,0,0,0-1.727,4.057c-.008.039-.015.077-.021.116,1.32-.571,2.389-.809,4.739.708a4.437,4.437,0,0,0,2.184.639h1.071a2,2,0,0,0,1.4-.4.71.71,0,0,0,.139-.228c-.026-.552-.525-.777-1.631-1.069" fill="#ef4123"/>
      <path id="Path_10420" data-name="Path 10420" d="M20.318,49.682a.694.694,0,0,0,.269-.369c0-.053-.04-.121-.124-.194a.478.478,0,0,0-.322-.13,1.926,1.926,0,0,0-.933.455c-.265.186-.7.549-.67.889a.286.286,0,0,0,.122.232,1.34,1.34,0,0,0,.807.072,2.34,2.34,0,0,1,.851-.955" fill="#fcbc80"/>
      <path id="Path_10421" data-name="Path 10421" d="M21.927,50.256c0-.025.011-.1-.125-.232,0,0-.2-.158-.665.108a2.155,2.155,0,0,0-.916.818.45.45,0,0,0,.246.139,1.687,1.687,0,0,0,1.073-.379c.011-.009.022-.015.031-.022.106-.07.341-.27.356-.432" fill="#fcbc80"/>
      <path id="Path_10422" data-name="Path 10422" d="M17.01,48.005A.569.569,0,0,0,16.916,48a1.522,1.522,0,0,0-1.05.527c-.153.2-.1.32-.085.358.028.064.173.148.437.19.053.009.11.015.17.02a2.046,2.046,0,0,1,.6-.889c.067-.065.13-.121.19-.173a.94.94,0,0,0-.137-.023l-.034,0" fill="#fcbc80"/>
      <path id="Path_10423" data-name="Path 10423" d="M17.156,49.476c.007.075.026.277.427.409a1.479,1.479,0,0,0,.191.049,2.324,2.324,0,0,1,.966-1.155l.225-.155a.154.154,0,0,0,0-.075.429.429,0,0,0-.229-.2.579.579,0,0,0-.263-.063,1.451,1.451,0,0,0-.913.51c-.3.289-.411.475-.4.682" fill="#fcbc80"/>
      <path id="Path_10424" data-name="Path 10424" d="M27.132,48.715a.793.793,0,0,0,.542-.18.659.659,0,0,0,.184-.373,9.5,9.5,0,0,0-2.091-1.923,7.959,7.959,0,0,0-1.428-.78,2.252,2.252,0,0,0-1.425-.146l-.024.006a1.941,1.941,0,0,0-.506.278c-.133.088-.283.187-.453.285a4.054,4.054,0,0,1-1.657.5,1.483,1.483,0,0,1-1.433-.45.99.99,0,0,1-.16-.991c.122-.325.5-.508.973-.741a5.735,5.735,0,0,0,.562-.3,5.619,5.619,0,0,0,.538-.4c.174-.142.371-.3.692-.529a2.365,2.365,0,0,1,.418-.234c-.153-.021-.318-.039-.5-.054a3.012,3.012,0,0,0-2.113.775A12.9,12.9,0,0,1,15.1,44.771c-2.006.4-4.756.8-8.175,1.194.1.381.216.761.334,1.131a23.524,23.524,0,0,0,1.617,3.849c1.216-.538,4.208-1.885,6.534-3.129a2.245,2.245,0,0,1,1.7-.622,1.668,1.668,0,0,1,.893.345,1.422,1.422,0,0,1,1.09.077,1.207,1.207,0,0,1,.619.624h0A1.279,1.279,0,0,1,21,48.5a1.09,1.09,0,0,1,.4.674,1.123,1.123,0,0,1,.982.265,1.072,1.072,0,0,1,.363.9,1.124,1.124,0,0,1-.181.492,1.332,1.332,0,0,0,.657-.081,1.368,1.368,0,0,0,.213-.107,3.822,3.822,0,0,0-.56-.817.408.408,0,1,1,.609-.542,4.534,4.534,0,0,1,.743,1.127.626.626,0,0,0,.542-.172.958.958,0,0,0,.185-.255,2.693,2.693,0,0,0-.424-.6,6.631,6.631,0,0,0-.928-.781.4.4,0,0,1-.167-.263.408.408,0,0,1,.068-.305.407.407,0,0,1,.567-.1,7.308,7.308,0,0,1,1.076.914,3.616,3.616,0,0,1,.544.785.777.777,0,0,0,.789-.444,6.423,6.423,0,0,0-2.047-1.835.41.41,0,0,1-.207-.235.4.4,0,0,1,.02-.311.408.408,0,0,1,.234-.207.4.4,0,0,1,.312.02,7.192,7.192,0,0,1,2.35,2.088" fill="#fcbc80"/>
      <path id="Path_10425" data-name="Path 10425" d="M21.936,44.918a2.386,2.386,0,0,1,.774-.394c1.353-.365,2.75.543,3.5,1.032a10.1,10.1,0,0,1,2.156,1.939c.007.009.027.035.058.072l.014.015,0,.005a4.1,4.1,0,0,0,.709.634,28.279,28.279,0,0,0,5.421,2.858A23.36,23.36,0,0,0,36.262,47.1c.108-.335.211-.683.308-1.035a38.732,38.732,0,0,1-6.04-.988c-1.8-.429-3.124-.845-3.18-.863-.366-.124-.69-.241-.975-.345a6.183,6.183,0,0,0-2.352-.555l-.252.009-.317.008H23.44a2.55,2.55,0,0,0-1.524.308c-.3.211-.484.361-.647.494a6.289,6.289,0,0,1-.608.452,6.2,6.2,0,0,1-.648.348,3.75,3.75,0,0,0-.578.321c-.012.04-.017.082.071.205s.338.133.724.111a3.23,3.23,0,0,0,1.3-.392c.149-.085.282-.171.41-.257" fill="#fcbc80"/>
    </g>
  </g>
</svg>
